<?xml version="1.0" encoding="UTF-8" standalone="no"?><!DOCTYPE svg PUBLIC "-//W3C//DTD SVG 1.1//EN" "http://www.w3.org/Graphics/SVG/1.1/DTD/svg11.dtd"><svg width="32px" height="32px" version="1.1" xmlns="http://www.w3.org/2000/svg" xmlns:xlink="http://www.w3.org/1999/xlink" xml:space="preserve" xmlns:serif="http://www.serif.com/" style="fill-rule:evenodd;clip-rule:evenodd;stroke-linejoin:round;stroke-miterlimit:2;"><rect id="d10" x="0" y="0" width="32" height="32" style="fill:none;"/><path d="M5.36,23.187l-2.317,-1.634c-1.052,-0.741 -1.492,-2.055 -1.09,-3.254l0.885,-2.643l-0.211,-0.631c-0.804,-2.398 0.076,-5.026 2.179,-6.508l0.554,-0.391l0.869,-2.595c0.401,-1.199 1.553,-2.011 2.853,-2.011l2.812,0l0.579,-0.408c2.103,-1.483 4.951,-1.483 7.054,-0l0.579,0.408l2.812,0c1.3,0 2.452,0.812 2.853,2.011l0.869,2.595l0.554,0.391c2.103,1.482 2.983,4.11 2.179,6.508l-0.211,0.631l0.885,2.643c0.402,1.199 -0.038,2.513 -1.09,3.254l-2.317,1.634l-0.195,0.583c-0.803,2.399 -3.107,4.023 -5.707,4.023l-0.632,-0l-2.343,1.651c-1.051,0.741 -2.475,0.741 -3.526,0l-2.343,-1.651l-0.632,-0c-2.6,-0 -4.904,-1.624 -5.707,-4.023l-0.195,-0.583Z" style="fill:#666;"/><path d="M5.36,23.187l-2.317,-1.634c-1.052,-0.741 -1.492,-2.055 -1.09,-3.254l0.885,-2.643l-0.211,-0.631c-0.804,-2.398 0.076,-5.026 2.179,-6.508l0.554,-0.391l0.869,-2.595c0.401,-1.199 1.553,-2.011 2.853,-2.011l2.812,0l0.579,-0.408c2.103,-1.483 4.951,-1.483 7.054,-0l0.579,0.408l2.812,0c1.3,0 2.452,0.812 2.853,2.011l0.869,2.595l0.554,0.391c2.103,1.482 2.983,4.11 2.179,6.508l-0.211,0.631l0.885,2.643c0.402,1.199 -0.038,2.513 -1.09,3.254l-2.317,1.634l-0.195,0.583c-0.803,2.399 -3.107,4.023 -5.707,4.023l-0.632,-0l-2.343,1.651c-1.051,0.741 -2.475,0.741 -3.526,0l-2.343,-1.651l-0.632,-0c-2.6,-0 -4.904,-1.624 -5.707,-4.023l-0.195,-0.583Zm1.896,-0.636l0.196,0.584c0.534,1.596 2.08,2.658 3.81,2.658l0.632,-0c0.413,-0 0.815,0.127 1.152,0.365l2.343,1.651c0.364,0.257 0.858,0.257 1.222,0l2.343,-1.651c0.337,-0.238 0.739,-0.365 1.152,-0.365l0.632,-0c1.73,-0 3.276,-1.062 3.81,-2.658l0.196,-0.584c0.135,-0.404 0.396,-0.754 0.744,-0.999l2.317,-1.633c0.319,-0.226 0.468,-0.62 0.345,-0.985l-0.885,-2.642c-0.138,-0.413 -0.138,-0.859 0,-1.271l0.212,-0.631c0.524,-1.564 -0.064,-3.272 -1.436,-4.239l-0.553,-0.39c-0.348,-0.245 -0.609,-0.596 -0.744,-1l-0.869,-2.594c-0.133,-0.397 -0.527,-0.647 -0.957,-0.647l-2.812,0c-0.413,0 -0.815,-0.127 -1.152,-0.365l-0.58,-0.409c-1.415,-0.998 -3.333,-0.998 -4.748,0l-0.58,0.409c-0.337,0.238 -0.739,0.365 -1.152,0.365l-2.812,0c-0.43,0 -0.824,0.25 -0.957,0.647l-0.869,2.594c-0.135,0.404 -0.396,0.755 -0.744,1l-0.553,0.39c-1.372,0.967 -1.96,2.675 -1.436,4.239l0.212,0.631c0.138,0.412 0.138,0.858 -0,1.271l-0.885,2.642c-0.123,0.365 0.026,0.759 0.345,0.985l2.317,1.633c0.348,0.245 0.609,0.595 0.744,0.999Z" style="fill:#666;"/><path d="M12.543,3.063c2.073,-1.462 4.841,-1.462 6.914,-0c2.288,1.613 5.285,3.725 7.613,5.366c2.166,1.527 3.074,4.296 2.232,6.809c-0.868,2.593 -1.974,5.894 -2.833,8.46c-0.819,2.446 -3.11,4.095 -5.689,4.095c-2.888,-0 -6.672,-0 -9.56,-0c-2.579,-0 -4.87,-1.649 -5.689,-4.095c-0.859,-2.566 -1.965,-5.867 -2.833,-8.46c-0.842,-2.513 0.066,-5.282 2.232,-6.809c2.328,-1.641 5.325,-3.753 7.613,-5.366Z" style="fill:#bfbfbf;"/><path d="M12.543,3.063c2.073,-1.462 4.841,-1.462 6.914,-0l7.613,5.366c2.166,1.527 3.074,4.296 2.232,6.809l-2.833,8.46c-0.819,2.446 -3.11,4.095 -5.689,4.095l-9.56,-0c-2.579,-0 -4.87,-1.649 -5.689,-4.095l-2.833,-8.46c-0.842,-2.513 0.066,-5.282 2.232,-6.809l7.613,-5.366Zm1.152,1.634l-7.612,5.367c-1.445,1.018 -2.05,2.863 -1.489,4.539l2.833,8.46c0.547,1.631 2.074,2.73 3.793,2.73l9.56,-0c1.719,-0 3.246,-1.099 3.793,-2.73l2.833,-8.46c0.561,-1.676 -0.044,-3.521 -1.489,-4.539l-7.612,-5.367c-1.382,-0.974 -3.228,-0.974 -4.61,0Z" style="fill:#808080;"/></svg>