<?xml version="1.0" encoding="UTF-8" standalone="no"?><!DOCTYPE svg PUBLIC "-//W3C//DTD SVG 1.1//EN" "http://www.w3.org/Graphics/SVG/1.1/DTD/svg11.dtd"><svg width="32px" height="32px" version="1.1" xmlns="http://www.w3.org/2000/svg" xmlns:xlink="http://www.w3.org/1999/xlink" xml:space="preserve" xmlns:serif="http://www.serif.com/" style="fill-rule:evenodd;clip-rule:evenodd;stroke-linejoin:round;stroke-miterlimit:2;"><rect id="d100" x="0" y="0" width="32" height="32" style="fill:none;"/><circle cx="16" cy="16" r="14.033" style="fill:#4d4d4d;"/><ellipse cx="16" cy="16" rx="12.924" ry="12" style="fill:#666;"/><ellipse cx="16" cy="16" rx="12" ry="10.517" style="fill:#bfbfbf;"/><path d="M16,5.483c6.623,0 12,4.713 12,10.517c0,5.805 -5.377,10.517 -12,10.517c-6.623,0 -12,-4.712 -12,-10.517c0,-5.804 5.377,-10.517 12,-10.517Zm0,2c-5.452,0 -10,3.739 -10,8.517c0,4.779 4.548,8.517 10,8.517c5.452,0 10,-3.738 10,-8.517c0,-4.778 -4.548,-8.517 -10,-8.517Z" style="fill:#808080;"/></svg>