<?xml version="1.0" encoding="UTF-8" standalone="no"?><!DOCTYPE svg PUBLIC "-//W3C//DTD SVG 1.1//EN" "http://www.w3.org/Graphics/SVG/1.1/DTD/svg11.dtd"><svg width="100%" height="100%" viewBox="0 0 8 8" version="1.1" xmlns="http://www.w3.org/2000/svg" xmlns:xlink="http://www.w3.org/1999/xlink" xml:space="preserve" xmlns:serif="http://www.serif.com/" style="fill-rule:evenodd;clip-rule:evenodd;stroke-linejoin:round;stroke-miterlimit:2;"><rect id="d12-outline" x="0" y="0" width="7.68" height="7.68" style="fill:none;"/><g id="d12-outline1" serif:id="d12-outline"><path d="M0.772,4.477c-0.198,-0.401 -0.198,-0.873 0,-1.274c-0.014,-0.187 -0.035,-0.373 -0.063,-0.557c-0.055,-0.339 0.138,-0.669 0.461,-0.788c0.185,-0.07 0.37,-0.148 0.551,-0.231c0.26,-0.394 0.698,-0.636 1.171,-0.646c0.174,-0.113 0.343,-0.232 0.507,-0.357c0.26,-0.201 0.622,-0.201 0.882,0c0.164,0.125 0.333,0.244 0.507,0.357c0.473,0.01 0.91,0.252 1.171,0.645c0.181,0.084 0.366,0.161 0.552,0.232c0.322,0.118 0.515,0.449 0.46,0.788c-0.027,0.184 -0.049,0.37 -0.063,0.557c0.198,0.401 0.198,0.873 -0,1.274c0.014,0.187 0.035,0.373 0.063,0.557c0.055,0.339 -0.138,0.669 -0.461,0.788c-0.185,0.07 -0.37,0.148 -0.551,0.231c-0.26,0.394 -0.698,0.636 -1.171,0.646c-0.174,0.113 -0.343,0.232 -0.507,0.357c-0.26,0.201 -0.622,0.201 -0.882,-0c-0.164,-0.125 -0.333,-0.244 -0.507,-0.357c-0.473,-0.01 -0.91,-0.252 -1.171,-0.645c-0.181,-0.084 -0.366,-0.161 -0.552,-0.232c-0.322,-0.118 -0.515,-0.449 -0.46,-0.788c0.027,-0.184 0.049,-0.37 0.063,-0.557Zm0.479,0.037c-0.016,0.198 -0.038,0.396 -0.067,0.591c-0.001,0.002 -0.001,0.004 -0.001,0.006c-0.019,0.112 0.045,0.222 0.152,0.261c0.002,0 0.003,0.001 0.005,0.002c0.196,0.074 0.39,0.156 0.582,0.243c0.081,0.038 0.15,0.097 0.2,0.172c0.173,0.262 0.465,0.423 0.78,0.43c0.09,0.002 0.177,0.029 0.252,0.077c0.184,0.12 0.362,0.246 0.535,0.377c0.002,0.001 0.004,0.003 0.005,0.004c0.086,0.067 0.206,0.067 0.292,-0c0.001,-0.001 0.003,-0.003 0.005,-0.004c0.173,-0.131 0.351,-0.257 0.535,-0.377c0.075,-0.048 0.163,-0.075 0.252,-0.077c0.315,-0.007 0.607,-0.168 0.78,-0.431c0.05,-0.074 0.119,-0.134 0.201,-0.171c0.191,-0.088 0.385,-0.169 0.581,-0.244c0.001,-0.001 0.003,-0.001 0.005,-0.002c0.106,-0.039 0.17,-0.148 0.152,-0.26c-0,-0.002 -0.001,-0.004 -0.001,-0.006c-0.029,-0.195 -0.051,-0.392 -0.067,-0.59c-0.007,-0.087 0.01,-0.173 0.048,-0.25c0.132,-0.268 0.132,-0.582 0,-0.849c-0.038,-0.078 -0.055,-0.164 -0.048,-0.25c0.016,-0.198 0.038,-0.396 0.067,-0.591c0.001,-0.002 0.001,-0.004 0.001,-0.006c0.019,-0.112 -0.045,-0.222 -0.152,-0.261c-0.002,-0 -0.003,-0.001 -0.005,-0.002c-0.196,-0.074 -0.39,-0.156 -0.582,-0.243c-0.081,-0.038 -0.15,-0.097 -0.2,-0.172c-0.173,-0.262 -0.465,-0.423 -0.78,-0.43c-0.09,-0.002 -0.177,-0.029 -0.252,-0.077c-0.184,-0.12 -0.362,-0.246 -0.535,-0.377c-0.002,-0.001 -0.004,-0.003 -0.005,-0.004c-0.086,-0.067 -0.206,-0.067 -0.292,0c-0.001,0.001 -0.003,0.003 -0.005,0.004c-0.173,0.131 -0.351,0.257 -0.535,0.377c-0.075,0.048 -0.163,0.075 -0.252,0.077c-0.315,0.007 -0.607,0.168 -0.78,0.431c-0.05,0.074 -0.119,0.134 -0.201,0.171c-0.191,0.088 -0.385,0.169 -0.581,0.244c-0.001,0.001 -0.003,0.001 -0.005,0.002c-0.106,0.039 -0.17,0.148 -0.152,0.26c0,0.002 0.001,0.004 0.001,0.006c0.029,0.195 0.051,0.392 0.067,0.59c0.007,0.087 -0.01,0.173 -0.048,0.25c-0.132,0.268 -0.132,0.582 -0,0.849c0.038,0.078 0.055,0.164 0.048,0.25Z" style="fill:#ccc;"/><path d="M6.848,3.095c0.277,0.458 0.277,1.032 0,1.49l-0.858,1.419c-0.261,0.431 -0.728,0.695 -1.232,0.695l-1.836,-0c-0.504,-0 -0.971,-0.264 -1.232,-0.695l-0.858,-1.419c-0.277,-0.458 -0.277,-1.032 -0,-1.49l0.858,-1.419c0.261,-0.431 0.728,-0.695 1.232,-0.695l1.836,0c0.504,0 0.971,0.264 1.232,0.695l0.858,1.419Zm-0.41,0.248l-0.859,-1.419c-0.174,-0.287 -0.485,-0.463 -0.821,-0.463l-1.836,0c-0.336,0 -0.647,0.176 -0.821,0.463l-0.859,1.419c-0.184,0.306 -0.184,0.688 0,0.994l0.859,1.419c0.174,0.287 0.485,0.463 0.821,0.463l1.836,-0c0.336,-0 0.647,-0.176 0.821,-0.463l0.859,-1.419c0.184,-0.306 0.184,-0.688 -0,-0.994Z" style="fill:#ccc;"/></g></svg>