<?xml version="1.0" encoding="UTF-8" standalone="no"?><!DOCTYPE svg PUBLIC "-//W3C//DTD SVG 1.1//EN" "http://www.w3.org/Graphics/SVG/1.1/DTD/svg11.dtd"><svg width="32px" height="32px" version="1.1" xmlns="http://www.w3.org/2000/svg" xmlns:xlink="http://www.w3.org/1999/xlink" xml:space="preserve" xmlns:serif="http://www.serif.com/" style="fill-rule:evenodd;clip-rule:evenodd;stroke-linejoin:round;stroke-miterlimit:2;"><rect id="d20-inverted" x="0" y="-0" width="32" height="32" style="fill:none;"/><path d="M12.317,3.398c1.08,-0.851 2.381,-1.277 3.683,-1.278c1.305,-0.001 2.611,0.424 3.695,1.278c4.666,3.711 8.328,9.01 10.031,14.433c0.492,1.559 0.322,3.25 -0.469,4.68c-0.791,1.43 -2.134,2.472 -3.715,2.883c-6.043,1.559 -13.03,1.559 -19.075,0.008c-1.583,-0.412 -2.928,-1.456 -3.721,-2.887c-0.792,-1.432 -0.962,-3.126 -0.47,-4.686c1.712,-5.421 5.374,-10.72 10.041,-14.431Zm1.239,1.57c-4.353,3.463 -7.775,8.404 -9.373,13.462c-0.327,1.038 -0.214,2.164 0.313,3.116c0.527,0.952 1.42,1.645 2.473,1.919c5.726,1.47 12.346,1.47 18.07,-0.007c1.051,-0.273 1.943,-0.966 2.468,-1.915c0.526,-0.95 0.639,-2.074 0.312,-3.11l-0.001,-0.002c-1.589,-5.06 -5.01,-10 -9.363,-13.464c-0.72,-0.566 -1.586,-0.848 -2.453,-0.847c-0.864,0.001 -1.728,0.283 -2.446,0.848Z" style="fill:#ccc;"/><path d="M2.274,14.169c-0.492,-1.559 -0.322,-3.25 0.469,-4.68c0.791,-1.43 2.134,-2.472 3.715,-2.883c6.043,-1.559 13.03,-1.559 19.075,-0.008c1.583,0.412 2.928,1.456 3.721,2.887c0.792,1.432 0.962,3.126 0.47,4.686c-1.712,5.421 -5.374,10.72 -10.041,14.431c-1.08,0.851 -2.381,1.277 -3.683,1.278c-1.305,0.001 -2.611,-0.424 -3.695,-1.278c-4.666,-3.711 -8.328,-9.01 -10.031,-14.433Zm1.908,-0.6c1.589,5.06 5.01,10 9.363,13.464c0.72,0.566 1.586,0.848 2.453,0.847c0.864,-0.001 1.728,-0.283 2.446,-0.848c4.353,-3.463 7.775,-8.404 9.373,-13.462c0.327,-1.038 0.214,-2.164 -0.313,-3.116c-0.527,-0.952 -1.42,-1.645 -2.473,-1.919c-5.726,-1.47 -12.346,-1.47 -18.07,0.007c-1.051,0.273 -1.943,0.966 -2.468,1.915c-0.526,0.95 -0.639,2.074 -0.312,3.11l0.001,0.002Z" style="fill:#ccc;"/><path d="M1.999,13.867c-0,-1.529 0.003,-3.04 0.744,-4.378c0.791,-1.43 2.134,-2.472 3.715,-2.883c0.204,-0.053 5.609,-3.01 5.859,-3.208c1.08,-0.851 2.381,-1.277 3.683,-1.278c1.305,-0.001 2.611,0.424 3.695,1.278c0.252,0.2 5.636,3.149 5.838,3.2c1.583,0.412 2.928,1.456 3.721,2.887c0.741,1.339 0.749,2.85 0.749,4.38c-0,1.378 0.001,2.889 0.001,4.268c-0,1.529 -0.006,3.04 -0.747,4.378c-0.791,1.43 -2.134,2.472 -3.715,2.883c-0.204,0.053 -5.609,3.01 -5.859,3.208c-1.08,0.851 -2.381,1.277 -3.683,1.278c-1.305,0.001 -2.611,-0.424 -3.695,-1.278c-0.252,-0.2 -5.636,-3.149 -5.838,-3.2c-1.583,-0.412 -2.928,-1.456 -3.721,-2.887c-0.741,-1.339 -0.746,-2.85 -0.746,-4.38c0,-1.378 -0.001,-2.889 -0.001,-4.268Z" style="fill:#808080;"/><path d="M1.999,13.867c-0,-1.529 0.003,-3.04 0.744,-4.378c0.791,-1.43 2.134,-2.472 3.715,-2.883c0.204,-0.053 5.609,-3.01 5.859,-3.208c1.08,-0.851 2.381,-1.277 3.683,-1.278c1.305,-0.001 2.611,0.424 3.695,1.278c0.252,0.2 5.636,3.149 5.838,3.2c1.583,0.412 2.928,1.456 3.721,2.887c0.741,1.339 0.749,2.85 0.749,4.38c-0,1.378 0.001,2.889 0.001,4.268c-0,1.529 -0.006,3.04 -0.747,4.378c-0.791,1.43 -2.134,2.472 -3.715,2.883c-0.204,0.053 -5.609,3.01 -5.859,3.208c-1.08,0.851 -2.381,1.277 -3.683,1.278c-1.305,0.001 -2.611,-0.424 -3.695,-1.278c-0.252,-0.2 -5.636,-3.149 -5.838,-3.2c-1.583,-0.412 -2.928,-1.456 -3.721,-2.887c-0.741,-1.339 -0.746,-2.85 -0.746,-4.38c0,-1.378 -0.001,-2.889 -0.001,-4.268Zm2,-0c-0,1.379 0.001,2.89 0.001,4.268c0,1.187 -0.079,2.373 0.496,3.411c0.526,0.951 1.42,1.645 2.472,1.919c0.279,0.088 6.3,3.347 6.575,3.566c0.72,0.567 1.587,0.85 2.455,0.849c0.865,-0.001 1.73,-0.284 2.441,-0.844c0.28,-0.222 6.373,-3.519 6.599,-3.577c1.051,-0.274 1.944,-0.966 2.469,-1.916c0.575,-1.038 0.497,-2.224 0.497,-3.41c-0,-1.379 -0.001,-2.89 -0.001,-4.268c-0,-1.187 0.076,-2.373 -0.499,-3.411c-0.526,-0.951 -1.42,-1.645 -2.472,-1.919c-0.279,-0.088 -6.3,-3.347 -6.575,-3.566c-0.72,-0.567 -1.587,-0.85 -2.455,-0.849c-0.865,0.001 -1.73,0.284 -2.441,0.844c-0.28,0.222 -6.373,3.519 -6.599,3.577c-1.051,0.274 -1.944,0.966 -2.469,1.916c-0.575,1.038 -0.494,2.224 -0.494,3.41Z" style="fill:#808080;"/><path d="M4,16.005c1.325,-3.329 3.421,-6.539 6.02,-9.214c3.901,-0.651 8.068,-0.65 11.97,-0.001c2.596,2.673 4.689,5.878 6.01,9.205c-1.325,3.329 -3.421,6.539 -6.02,9.214c-3.901,0.651 -8.068,0.65 -11.97,0.001c-2.596,-2.673 -4.689,-5.878 -6.01,-9.205Z" style="fill:#404040;"/><path d="M4,16.005c1.325,-3.329 3.421,-6.539 6.02,-9.214c3.901,-0.651 8.068,-0.65 11.97,-0.001c2.596,2.673 4.689,5.878 6.01,9.205c-1.325,3.329 -3.421,6.539 -6.02,9.214c-3.901,0.651 -8.068,0.65 -11.97,0.001c-2.596,-2.673 -4.689,-5.878 -6.01,-9.205Zm2.167,0c1.149,2.63 2.81,5.154 4.827,7.335c3.277,0.477 6.726,0.477 10.004,-0.002c2.018,-2.182 3.683,-4.71 4.835,-7.344c-1.149,-2.63 -2.811,-5.154 -4.827,-7.334c-3.277,-0.477 -6.726,-0.477 -10.004,0.002c-2.018,2.182 -3.683,4.711 -4.835,7.343Z" style="fill:#404040;"/><path d="M13.209,2.754c1.747,-0.917 3.833,-0.917 5.58,0l8.004,4.204c1.974,1.037 3.21,3.083 3.21,5.312l-0,7.46c-0,2.229 -1.236,4.275 -3.21,5.312l-8.004,4.204c-1.747,0.917 -3.833,0.917 -5.58,-0l-8.004,-4.204c-1.974,-1.037 -3.21,-3.083 -3.21,-5.312l0,-7.46c0,-2.229 1.236,-4.275 3.21,-5.312l8.004,-4.204Zm0.93,1.771l-8.004,4.204c-1.316,0.691 -2.14,2.055 -2.14,3.541l0,7.46c0,1.486 0.824,2.85 2.14,3.541l8.004,4.204c1.164,0.612 2.555,0.612 3.72,0l8.004,-4.204c1.316,-0.691 2.14,-2.055 2.14,-3.541l-0,-7.46c-0,-1.486 -0.824,-2.85 -2.14,-3.541l-8.004,-4.204c-1.165,-0.612 -2.556,-0.612 -3.72,-0Z" style="fill:#bfbfbf;"/></svg>