<?xml version="1.0" encoding="UTF-8" standalone="no"?><!DOCTYPE svg PUBLIC "-//W3C//DTD SVG 1.1//EN" "http://www.w3.org/Graphics/SVG/1.1/DTD/svg11.dtd"><svg width="100%" height="100%" viewBox="0 0 8 8" version="1.1" xmlns="http://www.w3.org/2000/svg" xmlns:xlink="http://www.w3.org/1999/xlink" xml:space="preserve" xmlns:serif="http://www.serif.com/" style="fill-rule:evenodd;clip-rule:evenodd;stroke-linejoin:round;stroke-miterlimit:2;"><rect id="d20-outline" x="0" y="0" width="7.68" height="7.68" style="fill:none;"/><g id="d20-outline1" serif:id="d20-outline"><path d="M3.17,0.661c0.419,-0.22 0.92,-0.22 1.339,0l1.921,1.009c0.474,0.249 0.771,0.74 0.771,1.275l-0,1.79c-0,0.535 -0.297,1.026 -0.771,1.275l-1.921,1.009c-0.419,0.22 -0.92,0.22 -1.339,-0l-1.921,-1.009c-0.473,-0.249 -0.77,-0.74 -0.77,-1.275l-0,-1.79c-0,-0.535 0.297,-1.026 0.77,-1.275l1.921,-1.009Zm0.223,0.425l-1.921,1.009c-0.315,0.166 -0.513,0.493 -0.513,0.85l-0,1.79c-0,0.357 0.198,0.684 0.513,0.85l1.921,1.009c0.28,0.147 0.614,0.147 0.893,0l1.921,-1.009c0.316,-0.166 0.514,-0.493 0.514,-0.85l-0,-1.79c-0,-0.357 -0.198,-0.684 -0.514,-0.85l-1.921,-1.009c-0.279,-0.147 -0.613,-0.147 -0.893,-0Z" style="fill:#ccc;"/><path d="M2.956,0.816c0.259,-0.205 0.572,-0.307 0.884,-0.307c0.313,-0.001 0.627,0.102 0.887,0.306c1.12,0.891 1.998,2.163 2.407,3.465c0.118,0.374 0.078,0.78 -0.112,1.123c-0.19,0.343 -0.512,0.593 -0.892,0.692c-1.45,0.374 -3.127,0.374 -4.578,0.001c-0.38,-0.098 -0.703,-0.349 -0.893,-0.692c-0.19,-0.344 -0.231,-0.751 -0.113,-1.125c0.411,-1.301 1.29,-2.573 2.41,-3.463Zm0.298,0.376c-1.045,0.832 -1.867,2.017 -2.25,3.231c-0.079,0.249 -0.051,0.52 0.075,0.748c0.126,0.228 0.341,0.395 0.593,0.461c1.375,0.352 2.964,0.352 4.337,-0.002c0.253,-0.066 0.467,-0.232 0.593,-0.46c0.126,-0.228 0.153,-0.498 0.075,-0.746l-0.001,-0.001c-0.381,-1.214 -1.202,-2.4 -2.247,-3.231c-0.173,-0.136 -0.381,-0.203 -0.589,-0.203c-0.207,-0 -0.414,0.068 -0.586,0.203Z" style="fill:#ccc;"/><path d="M0.546,3.4c-0.118,-0.374 -0.078,-0.78 0.112,-1.123c0.19,-0.343 0.512,-0.593 0.892,-0.692c1.45,-0.374 3.127,-0.374 4.578,-0.001c0.38,0.098 0.703,0.349 0.893,0.692c0.19,0.344 0.231,0.751 0.113,1.125c-0.411,1.301 -1.29,2.573 -2.41,3.463c-0.259,0.205 -0.572,0.307 -0.884,0.307c-0.313,0.001 -0.627,-0.102 -0.887,-0.306c-1.12,-0.891 -1.998,-2.163 -2.407,-3.465Zm0.458,-0.143c0.381,1.214 1.202,2.4 2.247,3.231c0.173,0.136 0.381,0.203 0.589,0.203c0.207,0 0.414,-0.068 0.586,-0.203c1.045,-0.832 1.867,-2.017 2.25,-3.231c0.079,-0.249 0.051,-0.52 -0.075,-0.748c-0.126,-0.228 -0.341,-0.395 -0.593,-0.461c-1.375,-0.352 -2.964,-0.352 -4.337,0.002c-0.253,0.066 -0.467,0.232 -0.593,0.46c-0.126,0.228 -0.153,0.498 -0.075,0.746l0.001,0.001Z" style="fill:#ccc;"/><path d="M0.702,3.841c0.347,-0.87 0.895,-1.709 1.574,-2.409c1.02,-0.17 2.11,-0.17 3.13,-0c0.679,0.699 1.226,1.537 1.572,2.407c-0.347,0.87 -0.895,1.709 -1.574,2.409c-1.02,0.17 -2.11,0.17 -3.13,0c-0.679,-0.699 -1.226,-1.537 -1.572,-2.407Zm0.52,0c0.305,0.703 0.748,1.377 1.288,1.958c0.87,0.129 1.787,0.129 2.658,-0c0.54,-0.582 0.985,-1.257 1.29,-1.961c-0.305,-0.702 -0.748,-1.377 -1.288,-1.957c-0.87,-0.129 -1.787,-0.129 -2.658,0c-0.54,0.582 -0.985,1.257 -1.29,1.96Z" style="fill:#ccc;"/></g></svg>