<?xml version="1.0" encoding="UTF-8" standalone="no"?><!DOCTYPE svg PUBLIC "-//W3C//DTD SVG 1.1//EN" "http://www.w3.org/Graphics/SVG/1.1/DTD/svg11.dtd"><svg width="32px" height="32px" version="1.1" xmlns="http://www.w3.org/2000/svg" xmlns:xlink="http://www.w3.org/1999/xlink" xml:space="preserve" xmlns:serif="http://www.serif.com/" style="fill-rule:evenodd;clip-rule:evenodd;stroke-linejoin:round;stroke-miterlimit:2;"><rect id="d20" x="0" y="0" width="32" height="32" style="fill:none;"/><path d="M13.209,2.754c1.747,-0.917 3.833,-0.917 5.58,0c2.308,1.212 5.587,2.935 8.004,4.204c1.974,1.037 3.21,3.083 3.21,5.312c-0,2.272 -0,5.188 -0,7.46c-0,2.229 -1.236,4.275 -3.21,5.312c-2.417,1.269 -5.696,2.992 -8.004,4.204c-1.747,0.917 -3.833,0.917 -5.58,-0c-2.308,-1.212 -5.587,-2.935 -8.004,-4.204c-1.974,-1.037 -3.21,-3.083 -3.21,-5.312c0,-2.272 0,-5.188 0,-7.46c0,-2.229 1.236,-4.275 3.21,-5.312c2.417,-1.269 5.696,-2.992 8.004,-4.204Z" style="fill:#4d4d4d;"/><path d="M13.209,2.754c1.747,-0.917 3.833,-0.917 5.58,0l8.004,4.204c1.974,1.037 3.21,3.083 3.21,5.312l-0,7.46c-0,2.229 -1.236,4.275 -3.21,5.312l-8.004,4.204c-1.747,0.917 -3.833,0.917 -5.58,-0l-8.004,-4.204c-1.974,-1.037 -3.21,-3.083 -3.21,-5.312l0,-7.46c0,-2.229 1.236,-4.275 3.21,-5.312l8.004,-4.204Zm0.93,1.771l-8.004,4.204c-1.316,0.691 -2.14,2.055 -2.14,3.541l0,7.46c0,1.486 0.824,2.85 2.14,3.541l8.004,4.204c1.164,0.612 2.555,0.612 3.72,0l8.004,-4.204c1.316,-0.691 2.14,-2.055 2.14,-3.541l-0,-7.46c-0,-1.486 -0.824,-2.85 -2.14,-3.541l-8.004,-4.204c-1.165,-0.612 -2.556,-0.612 -3.72,-0Z" style="fill:#4d4d4d;"/><path d="M12.317,3.398c1.08,-0.851 2.381,-1.277 3.683,-1.278c1.305,-0.001 2.611,0.424 3.695,1.278c4.666,3.711 8.328,9.01 10.031,14.433c0.492,1.559 0.322,3.25 -0.469,4.68c-0.791,1.43 -2.134,2.472 -3.715,2.883c-6.043,1.559 -13.03,1.559 -19.075,0.008c-1.583,-0.412 -2.928,-1.456 -3.721,-2.887c-0.792,-1.432 -0.962,-3.126 -0.47,-4.686c1.712,-5.421 5.374,-10.72 10.041,-14.431Z" style="fill:#666;"/><path d="M12.317,3.398c1.08,-0.851 2.381,-1.277 3.683,-1.278c1.305,-0.001 2.611,0.424 3.695,1.278c4.666,3.711 8.328,9.01 10.031,14.433c0.492,1.559 0.322,3.25 -0.469,4.68c-0.791,1.43 -2.134,2.472 -3.715,2.883c-6.043,1.559 -13.03,1.559 -19.075,0.008c-1.583,-0.412 -2.928,-1.456 -3.721,-2.887c-0.792,-1.432 -0.962,-3.126 -0.47,-4.686c1.712,-5.421 5.374,-10.72 10.041,-14.431Zm1.239,1.57c-4.353,3.463 -7.775,8.404 -9.373,13.462c-0.327,1.038 -0.214,2.164 0.313,3.116c0.527,0.952 1.42,1.645 2.473,1.919c5.726,1.47 12.346,1.47 18.07,-0.007c1.051,-0.273 1.943,-0.966 2.468,-1.915c0.526,-0.95 0.639,-2.074 0.312,-3.11l-0.001,-0.002c-1.589,-5.06 -5.01,-10 -9.363,-13.464c-0.72,-0.566 -1.586,-0.848 -2.453,-0.847c-0.864,0.001 -1.728,0.283 -2.446,0.848Z" style="fill:#666;"/><path d="M2.274,14.169c-0.492,-1.559 -0.322,-3.25 0.469,-4.68c0.791,-1.43 2.134,-2.472 3.715,-2.883c6.043,-1.559 13.03,-1.559 19.075,-0.008c1.583,0.412 2.928,1.456 3.721,2.887c0.792,1.432 0.962,3.126 0.47,4.686c-1.712,5.421 -5.374,10.72 -10.041,14.431c-1.08,0.851 -2.381,1.277 -3.683,1.278c-1.305,0.001 -2.611,-0.424 -3.695,-1.278c-4.666,-3.711 -8.328,-9.01 -10.031,-14.433Z" style="fill:#666;"/><path d="M2.274,14.169c-0.492,-1.559 -0.322,-3.25 0.469,-4.68c0.791,-1.43 2.134,-2.472 3.715,-2.883c6.043,-1.559 13.03,-1.559 19.075,-0.008c1.583,0.412 2.928,1.456 3.721,2.887c0.792,1.432 0.962,3.126 0.47,4.686c-1.712,5.421 -5.374,10.72 -10.041,14.431c-1.08,0.851 -2.381,1.277 -3.683,1.278c-1.305,0.001 -2.611,-0.424 -3.695,-1.278c-4.666,-3.711 -8.328,-9.01 -10.031,-14.433Zm1.908,-0.6c1.589,5.06 5.01,10 9.363,13.464c0.72,0.566 1.586,0.848 2.453,0.847c0.864,-0.001 1.728,-0.283 2.446,-0.848c4.353,-3.463 7.775,-8.404 9.373,-13.462c0.327,-1.038 0.214,-2.164 -0.313,-3.116c-0.527,-0.952 -1.42,-1.645 -2.473,-1.919c-5.726,-1.47 -12.346,-1.47 -18.07,0.007c-1.051,0.273 -1.943,0.966 -2.468,1.915c-0.526,0.95 -0.639,2.074 -0.312,3.11l0.001,0.002Z" style="fill:#666;"/><path d="M2.927,16.005c1.443,-3.627 3.726,-7.123 6.558,-10.038c4.25,-0.709 8.79,-0.708 13.04,-0.001c2.829,2.912 5.109,6.405 6.548,10.029c-1.443,3.627 -3.726,7.123 -6.558,10.038c-4.25,0.709 -8.79,0.708 -13.04,0.001c-2.829,-2.912 -5.109,-6.405 -6.548,-10.029Z" style="fill:#bfbfbf;"/><path d="M2.927,16.005c1.443,-3.627 3.726,-7.123 6.558,-10.038c4.25,-0.709 8.79,-0.708 13.04,-0.001c2.829,2.912 5.109,6.405 6.548,10.029c-1.443,3.627 -3.726,7.123 -6.558,10.038c-4.25,0.709 -8.79,0.708 -13.04,0.001c-2.829,-2.912 -5.109,-6.405 -6.548,-10.029Zm2.165,0.001c1.269,2.927 3.118,5.738 5.365,8.158c3.627,0.535 7.449,0.535 11.077,-0.002c2.25,-2.423 4.102,-5.237 5.374,-8.169c-1.269,-2.927 -3.118,-5.737 -5.365,-8.157c-3.627,-0.535 -7.449,-0.535 -11.077,0.002c-2.25,2.423 -4.102,5.237 -5.374,8.168Z" style="fill:#808080;"/></svg>