<?xml version="1.0" encoding="UTF-8" standalone="no"?><!DOCTYPE svg PUBLIC "-//W3C//DTD SVG 1.1//EN" "http://www.w3.org/Graphics/SVG/1.1/DTD/svg11.dtd"><svg width="100%" height="100%" viewBox="0 0 8 8" version="1.1" xmlns="http://www.w3.org/2000/svg" xmlns:xlink="http://www.w3.org/1999/xlink" xml:space="preserve" xmlns:serif="http://www.serif.com/" style="fill-rule:evenodd;clip-rule:evenodd;stroke-linejoin:round;stroke-miterlimit:2;"><rect id="d4-outline" x="0" y="0" width="7.68" height="7.68" style="fill:none;"/><g id="d4-outline1" serif:id="d4-outline"><path d="M5.367,1.162l1.177,1.176c0.844,0.844 0.844,2.212 -0,3.055l-1.177,1.177c-0.843,0.843 -2.211,0.843 -3.054,-0l-1.177,-1.177c-0.844,-0.843 -0.844,-2.211 0,-3.055l1.177,-1.176c0.843,-0.844 2.211,-0.844 3.054,-0Zm-0.339,0.339c-0.656,-0.656 -1.72,-0.656 -2.376,0l-1.177,1.177c-0.656,0.656 -0.656,1.72 0,2.376l1.177,1.176c0.656,0.656 1.72,0.656 2.376,0l1.177,-1.176c0.656,-0.656 0.656,-1.72 -0,-2.376l-1.177,-1.177Z" style="fill:#bfbfbf;"/></g></svg>