<?xml version="1.0" encoding="UTF-8" standalone="no"?><!DOCTYPE svg PUBLIC "-//W3C//DTD SVG 1.1//EN" "http://www.w3.org/Graphics/SVG/1.1/DTD/svg11.dtd"><svg width="32px" height="32px" version="1.1" xmlns="http://www.w3.org/2000/svg" xmlns:xlink="http://www.w3.org/1999/xlink" xml:space="preserve" xmlns:serif="http://www.serif.com/" style="fill-rule:evenodd;clip-rule:evenodd;stroke-linejoin:round;stroke-miterlimit:2;"><rect id="d4" x="0" y="0" width="32" height="32" style="fill:none;"/><path d="M22.364,4.841c-3.515,-3.515 -9.213,-3.515 -12.728,0c-1.595,1.595 -3.307,3.307 -4.903,4.903c-3.514,3.514 -3.514,9.213 0,12.728c1.596,1.595 3.308,3.307 4.903,4.902c3.515,3.515 9.213,3.515 12.728,0c1.595,-1.595 3.307,-3.307 4.903,-4.902c3.514,-3.515 3.514,-9.214 -0,-12.728c-1.596,-1.596 -3.308,-3.308 -4.903,-4.903Z" style="fill:#bfbfbf;"/><path d="M22.364,4.841l4.903,4.903c3.514,3.514 3.514,9.213 -0,12.728l-4.903,4.902c-3.515,3.515 -9.213,3.515 -12.728,0l-4.903,-4.902c-3.514,-3.515 -3.514,-9.214 0,-12.728l4.903,-4.903c3.515,-3.515 9.213,-3.515 12.728,0Zm-1.414,1.414c-2.734,-2.733 -7.166,-2.733 -9.9,0l-4.902,4.903c-2.734,2.734 -2.734,7.166 -0,9.899l4.902,4.903c2.734,2.734 7.166,2.734 9.9,0l4.902,-4.903c2.734,-2.733 2.734,-7.165 0,-9.899l-4.902,-4.903Z" style="fill:#808080;"/></svg>