<?xml version="1.0" encoding="UTF-8" standalone="no"?><!DOCTYPE svg PUBLIC "-//W3C//DTD SVG 1.1//EN" "http://www.w3.org/Graphics/SVG/1.1/DTD/svg11.dtd"><svg width="32px" height="32px" version="1.1" xmlns="http://www.w3.org/2000/svg" xmlns:xlink="http://www.w3.org/1999/xlink" xml:space="preserve" xmlns:serif="http://www.serif.com/" style="fill-rule:evenodd;clip-rule:evenodd;stroke-linejoin:round;stroke-miterlimit:2;"><rect id="roll-1" x="0" y="-0" width="32" height="32" style="fill:none;"/><clipPath id="_clip1"><path d="M32,-0l-0,32l-32,-0l0,-32l32,-0Zm-8.582,1.054c-6.032,1.647 -9.606,5.427 -11.96,8.207c3.03,-2.732 10.762,-6.511 17.045,-7.969l-5.085,-0.238Zm7.684,3.602c-6.031,0.815 -12.517,4.112 -14.299,6.927c2.882,-2.022 8.863,-3.475 14.211,-4.261l0.088,-2.666Zm-29.851,24.419c10.472,-2.345 18.629,-6.657 20.929,-11.867c-4.879,4.462 -13.035,7.357 -21.463,9.284l0.534,2.583Z"/></clipPath><g clip-path="url(#_clip1)"><path d="M3.057,11.469c0.249,-4.495 3.78,-8.114 8.266,-8.473c2.632,-0.211 5.609,-0.45 8.4,-0.674c2.59,-0.208 5.144,0.715 7.004,2.53c1.86,1.814 2.845,4.345 2.701,6.94c-0.161,2.9 -0.333,6.007 -0.485,8.739c-0.249,4.495 -3.78,8.114 -8.266,8.473c-2.632,0.211 -5.609,0.45 -8.4,0.674c-2.59,0.208 -5.144,-0.715 -7.004,-2.53c-1.86,-1.814 -2.845,-4.345 -2.701,-6.94c0.161,-2.9 0.333,-6.007 0.485,-8.739Z" style="fill:#999;"/><path d="M3.057,11.469c0.249,-4.495 3.78,-8.114 8.266,-8.473l8.4,-0.674c2.59,-0.208 5.144,0.715 7.004,2.53c1.86,1.814 2.845,4.345 2.701,6.94l-0.485,8.739c-0.249,4.495 -3.78,8.114 -8.266,8.473l-8.4,0.674c-2.59,0.208 -5.144,-0.715 -7.004,-2.53c-1.86,-1.814 -2.845,-4.345 -2.701,-6.94l0.485,-8.739Zm1.996,0.11l-0.484,8.74c-0.112,2.018 0.654,3.986 2.101,5.398c1.446,1.411 3.433,2.129 5.448,1.967l8.399,-0.673c3.489,-0.28 6.236,-3.095 6.43,-6.59l0.484,-8.74c0.112,-2.018 -0.654,-3.986 -2.101,-5.398c-1.446,-1.411 -3.433,-2.129 -5.448,-1.967l-8.399,0.673c-3.489,0.28 -6.236,3.095 -6.43,6.59Z" style="fill:#808080;"/></g><path d="M28.498,2.803c-7.88,2.15 -13.98,5.254 -17.899,9.527c4.541,-3.792 10.922,-6.384 18.716,-8.055l-0.817,-1.472Z" style="fill:#fff;"/><path d="M5.534,28.587c6.663,-1.644 12.232,-3.757 14.466,-6.925c-0.777,3.063 -5.581,5.586 -13.168,7.707l-1.298,-0.782Z" style="fill:#fff;"/><path d="M3.016,24.75c6.789,-1.302 11.87,-3.083 13.226,-5.906c-2.333,2.606 -7.687,3.934 -13.793,4.945l0.567,0.961Z" style="fill:#fff;"/></svg>