<?xml version="1.0" encoding="UTF-8" standalone="no"?><!DOCTYPE svg PUBLIC "-//W3C//DTD SVG 1.1//EN" "http://www.w3.org/Graphics/SVG/1.1/DTD/svg11.dtd"><svg width="32px" height="32px" version="1.1" xmlns="http://www.w3.org/2000/svg" xmlns:xlink="http://www.w3.org/1999/xlink" xml:space="preserve" xmlns:serif="http://www.serif.com/" style="fill-rule:evenodd;clip-rule:evenodd;stroke-linejoin:round;stroke-miterlimit:2;"><rect id="roll-4" x="0" y="-0" width="32" height="32" style="fill:none;"/><path d="M28.377,10.827c-0.575,-4.025 -3.777,-7.165 -7.813,-7.661c-2.496,-0.307 -5.394,-0.662 -8.191,-1.006c-2.781,-0.341 -5.562,0.631 -7.523,2.632c-1.962,2 -2.88,4.799 -2.484,7.573c0.429,3.004 0.876,6.14 1.257,8.808c0.575,4.025 3.777,7.165 7.813,7.661c2.496,0.307 5.394,0.662 8.191,1.006c2.781,0.341 5.562,-0.631 7.523,-2.632c1.962,-2 2.88,-4.799 2.484,-7.573c-0.429,-3.004 -0.876,-6.14 -1.257,-8.808Z" style="fill:#999;"/><path d="M28.377,10.827l1.257,8.808c0.396,2.774 -0.522,5.573 -2.484,7.573c-1.961,2.001 -4.742,2.973 -7.523,2.632l-8.191,-1.006c-4.036,-0.496 -7.238,-3.636 -7.813,-7.661l-1.257,-8.808c-0.396,-2.774 0.522,-5.573 2.484,-7.573c1.961,-2.001 4.742,-2.973 7.523,-2.632l8.191,1.006c4.036,0.496 7.238,3.636 7.813,7.661Zm-1.98,0.283c-0.447,-3.131 -2.938,-5.574 -6.077,-5.959l-8.191,-1.006c-2.163,-0.265 -4.326,0.491 -5.851,2.047c-1.526,1.556 -2.24,3.733 -1.932,5.89l1.257,8.808c0.447,3.131 2.938,5.574 6.077,5.959l8.191,1.006c2.163,0.265 4.326,-0.491 5.851,-2.047c1.526,-1.556 2.24,-3.733 1.932,-5.89l-1.257,-8.808Z" style="fill:#808080;"/><path d="M23.109,2.782c-12.758,3.244 -13.012,6.487 -12.422,9.218c-0.409,-3.173 3.549,-6.324 15.139,-8.886l-2.717,-0.332Z" style="fill:#fff;"/><path d="M29.424,15.643c0.15,-8.093 -7.578,-9.182 -12.939,-5.338c6.486,-3.261 11.039,-0.787 11.761,4.554l1.178,0.784Z"/><path d="M29.085,28c-5.033,-11.91 -9.231,-16.923 -11.948,-16.34c3.077,0.345 7.195,6.514 10.281,16.798l1.667,-0.458Z" style="fill:#fff;"/><path d="M4.681,29.186c9.793,-2.173 16.776,-4.774 17.3,-9.992c-0.151,4.706 -4.919,8.044 -15.415,10.374l-1.885,-0.382Z"/><path d="M3.703,4c2.233,9.201 4.984,17.144 11.941,15.647c-6.628,0.46 -8.979,-6.591 -10.449,-15.299l-1.492,-0.348Z"/><path d="M2.132,22.99c9.328,0.465 13.308,1.194 15.848,-2.05c-3.078,2.525 -6.744,1.561 -15.053,0.692l-0.795,1.358Z" style="fill:#fff;"/></svg>