<?xml version="1.0" encoding="UTF-8" standalone="no"?><!DOCTYPE svg PUBLIC "-//W3C//DTD SVG 1.1//EN" "http://www.w3.org/Graphics/SVG/1.1/DTD/svg11.dtd"><svg width="32px" height="32px" version="1.1" xmlns="http://www.w3.org/2000/svg" xmlns:xlink="http://www.w3.org/1999/xlink" xml:space="preserve" xmlns:serif="http://www.serif.com/" style="fill-rule:evenodd;clip-rule:evenodd;stroke-linejoin:round;stroke-miterlimit:2;"><rect id="roll-0" x="0" y="-0" width="32" height="32" style="fill:none;"/><clipPath id="_clip1"><path d="M32,-0l0,32l-32,-0l0,-32l32,-0Zm-31.288,26.589c8.123,-2.202 15.05,-5.962 16.627,-9.285c-4.11,3.308 -10.987,5.836 -16.953,7.057l0.326,2.228Zm0.854,3.814l4.729,0.277c9,-3.17 15.971,-8.203 16.516,-11.673c-2.17,4.235 -13.372,8.767 -21.245,11.396Zm28.392,-28.387c-7.54,2.103 -14.732,5.334 -16.296,8.501c3.247,-2.58 11.836,-4.969 17.753,-6.644l-0.153,-1.466l-1.304,-0.391Z"/></clipPath><g clip-path="url(#_clip1)"><path d="M2.865,11.056c0.285,-4.556 3.968,-8.002 8.552,-8.002c2.759,0 5.88,0 8.778,0c2.56,0 5.053,1.091 6.854,3c1.801,1.908 2.739,4.453 2.58,6.998c-0.163,2.614 -0.338,5.397 -0.494,7.892c-0.285,4.556 -3.968,8.002 -8.552,8.002c-2.759,-0 -5.88,-0 -8.778,-0c-2.56,-0 -5.053,-1.091 -6.854,-3c-1.801,-1.908 -2.739,-4.453 -2.58,-6.998c0.163,-2.614 0.338,-5.397 0.494,-7.892Z" style="fill:#999;"/><path d="M2.865,11.056c0.285,-4.556 3.968,-8.002 8.552,-8.002l8.778,0c2.56,0 5.053,1.091 6.854,3c1.801,1.908 2.739,4.453 2.58,6.998l-0.494,7.892c-0.285,4.556 -3.968,8.002 -8.552,8.002l-8.778,-0c-2.56,-0 -5.053,-1.091 -6.854,-3c-1.801,-1.908 -2.739,-4.453 -2.58,-6.998l0.494,-7.892Zm1.996,0.125l-0.494,7.892c-0.125,2.001 0.622,4 2.038,5.501c1.42,1.504 3.382,2.372 5.4,2.372l8.778,-0c3.512,-0 6.338,-2.636 6.556,-6.127l0.494,-7.892c0.125,-2.001 -0.622,-4 -2.038,-5.501c-1.42,-1.504 -3.382,-2.372 -5.4,-2.372l-8.778,0c-3.512,0 -6.338,2.636 -6.556,6.127Z" style="fill:#808080;"/></g><path d="M22.557,2.442c-8.157,1.98 -13.011,4.91 -14.943,8.475c3.029,-3.703 9.424,-6.435 18,-8.44l-3.057,-0.035Z" style="fill:#fff;"/><path d="M29.961,5.911c-7.358,1.292 -12.594,3.789 -15.765,7.458c4.209,-3.407 9.361,-5.492 15.833,-5.73l-0.068,-1.728Z" style="fill:#fff;"/><path d="M3.17,28.6c5.885,-2.307 11.25,-4.741 12.83,-8.096c-2.821,3.33 -7.91,5.077 -13.236,6.659l0.406,1.437Z" style="fill:#fff;"/></svg>