<?xml version="1.0" encoding="UTF-8" standalone="no"?><!DOCTYPE svg PUBLIC "-//W3C//DTD SVG 1.1//EN" "http://www.w3.org/Graphics/SVG/1.1/DTD/svg11.dtd"><svg width="32px" height="32px" version="1.1" xmlns="http://www.w3.org/2000/svg" xmlns:xlink="http://www.w3.org/1999/xlink" xml:space="preserve" xmlns:serif="http://www.serif.com/" style="fill-rule:evenodd;clip-rule:evenodd;stroke-linejoin:round;stroke-miterlimit:2;"><rect id="roll-5" x="0" y="-0" width="32" height="32" style="fill:none;"/><path d="M3.623,10.827c0.575,-4.025 3.777,-7.165 7.813,-7.661c2.496,-0.307 5.394,-0.662 8.191,-1.006c2.781,-0.341 5.562,0.631 7.523,2.632c1.962,2 2.88,4.799 2.484,7.573c-0.429,3.004 -0.876,6.14 -1.257,8.808c-0.575,4.025 -3.777,7.165 -7.813,7.661c-2.496,0.307 -5.394,0.662 -8.191,1.006c-2.781,0.341 -5.562,-0.631 -7.523,-2.632c-1.962,-2 -2.88,-4.799 -2.484,-7.573c0.429,-3.004 0.876,-6.14 1.257,-8.808Z" style="fill:#999;"/><path d="M3.623,10.827c0.575,-4.025 3.777,-7.165 7.813,-7.661l8.191,-1.006c2.781,-0.341 5.562,0.631 7.523,2.632c1.962,2 2.88,4.799 2.484,7.573l-1.257,8.808c-0.575,4.025 -3.777,7.165 -7.813,7.661l-8.191,1.006c-2.781,0.341 -5.562,-0.631 -7.523,-2.632c-1.962,-2 -2.88,-4.799 -2.484,-7.573l1.257,-8.808Zm1.98,0.283l-1.257,8.808c-0.308,2.157 0.406,4.334 1.932,5.89c1.525,1.556 3.688,2.312 5.851,2.047l8.191,-1.006c3.139,-0.385 5.63,-2.828 6.077,-5.959l1.257,-8.808c0.308,-2.157 -0.406,-4.334 -1.932,-5.89c-1.525,-1.556 -3.688,-2.312 -5.851,-2.047l-8.191,1.006c-3.139,0.385 -5.63,2.828 -6.077,5.959Z" style="fill:#808080;"/><path d="M4.366,15.679c1.144,3.754 6.013,6.242 9.858,4.856c-2.892,-0.058 -6.63,-0.375 -8.516,-6.356l-1.342,1.5Z"/><path d="M18.855,2.211c-8.093,-0.149 -12.79,7.896 -8.946,13.258c-3.261,-6.486 2.821,-11.358 8.162,-12.08l0.784,-1.178Z" style="fill:#fff;"/><path d="M21.465,6.42c-9.935,2.833 -9.824,4.612 -10.2,8.397c1.78,-3.502 2.495,-4.272 10.657,-6.729l-0.457,-1.668Z"/><path d="M28.79,27.273c-2.173,-9.793 -4.774,-16.776 -9.992,-17.3c4.707,0.151 8.045,4.918 10.374,15.415l-0.382,1.885Z" style="fill:#fff;"/><path d="M3.604,28.251c9.201,-2.234 17.144,-4.984 15.648,-11.941c0.46,6.628 -6.591,8.979 -15.3,10.449l-0.348,1.492Z" style="fill:#fff;"/><path d="M22.248,24.814c1.043,-3.896 1.618,-7.068 -1.395,-9.916c1.793,3.733 0.246,5.82 -0.853,8.658l2.248,1.258Z"/></svg>