<?xml version="1.0" encoding="UTF-8" standalone="no"?><!DOCTYPE svg PUBLIC "-//W3C//DTD SVG 1.1//EN" "http://www.w3.org/Graphics/SVG/1.1/DTD/svg11.dtd"><svg width="32px" height="32px" version="1.1" xmlns="http://www.w3.org/2000/svg" xmlns:xlink="http://www.w3.org/1999/xlink" xml:space="preserve" xmlns:serif="http://www.serif.com/" style="fill-rule:evenodd;clip-rule:evenodd;stroke-linejoin:round;stroke-miterlimit:2;"><rect id="roll-shine" x="0" y="-0" width="32" height="32" style="fill:none;"/><path d="M26.122,3.349l-4.838,7.851l8.318,-8.148l-3.48,0.297Z" style="fill:#fff;"/><path d="M18.228,10.139l1.146,-7.639l-1.698,2.631l0.552,5.008Z" style="fill:#fff;"/><path d="M11.522,22.786l-5.177,6.324l-3.268,-0.127l8.445,-6.197Z" style="fill:#fff;"/><path d="M29.061,29.019l-7.777,-7.421l4.328,6.402l3.449,1.019Z" style="fill:#fff;"/><path d="M11.618,12l-7.618,-4.492l-0.796,-4.442l8.414,8.934Z" style="fill:#fff;"/><path d="M21.029,16.467l8.021,-0.467l-2.122,1.227l-5.899,-0.76Z" style="fill:#fff;"/><path d="M11.565,17.609l-6.069,1.315l-2.589,2.547l8.658,-3.862Z" style="fill:#fff;"/><path d="M16.488,22.956l0.254,5.73l1.231,0.339l-1.485,-6.069Z" style="fill:#fff;"/><path d="M14.578,9.715l-1.655,-6.536l-0.34,2.122l1.995,4.414Z" style="fill:#fff;"/></svg>