<?xml version="1.0" encoding="UTF-8" standalone="no"?><!DOCTYPE svg PUBLIC "-//W3C//DTD SVG 1.1//EN" "http://www.w3.org/Graphics/SVG/1.1/DTD/svg11.dtd"><svg width="32px" height="32px" version="1.1" xmlns="http://www.w3.org/2000/svg" xmlns:xlink="http://www.w3.org/1999/xlink" xml:space="preserve" xmlns:serif="http://www.serif.com/" style="fill-rule:evenodd;clip-rule:evenodd;stroke-linejoin:round;stroke-miterlimit:2;"><rect id="roll-3" x="0" y="-0" width="32" height="32" style="fill:none;"/><clipPath id="_clip1"><path d="M32,-0l0,32l-32,0l0,-32l32,-0Zm-26.312,0.68l-5.017,0.135c7.702,2.169 17.795,6.615 20.178,10.029c-1.485,-3.335 -7.43,-7.806 -15.161,-10.164Zm-4.681,4.568l-0.257,2.752c2.777,0.944 9.334,1.925 15.679,5.376c-1.998,-2.818 -8.67,-5.99 -15.422,-8.128Zm27.626,23.559l0.657,-1.945c-10.126,-2.94 -16.096,-5.172 -18.98,-8.112c1.773,4.114 7.256,7.012 18.323,10.057Z"/></clipPath><g clip-path="url(#_clip1)"><path d="M29.743,12.608c0.246,-2.635 -0.681,-5.245 -2.534,-7.135c-1.853,-1.891 -4.444,-2.869 -7.084,-2.676c-2.951,0.216 -6.096,0.446 -8.836,0.647c-4.385,0.321 -7.896,3.763 -8.304,8.14c-0.228,2.441 -0.484,5.192 -0.728,7.808c-0.246,2.635 0.681,5.245 2.534,7.135c1.853,1.891 4.444,2.869 7.084,2.676c2.951,-0.216 6.096,-0.446 8.836,-0.647c4.385,-0.321 7.896,-3.763 8.304,-8.14c0.228,-2.441 0.484,-5.192 0.728,-7.808Z" style="fill:#999;"/><path d="M29.743,12.608l-0.728,7.808c-0.408,4.377 -3.919,7.819 -8.304,8.14l-8.836,0.647c-2.64,0.193 -5.231,-0.785 -7.084,-2.676c-1.853,-1.89 -2.78,-4.5 -2.534,-7.135l0.728,-7.808c0.408,-4.377 3.919,-7.819 8.304,-8.14l8.836,-0.647c2.64,-0.193 5.231,0.785 7.084,2.676c1.853,1.89 2.78,4.5 2.534,7.135Zm-1.991,-0.185c0.191,-2.05 -0.53,-4.08 -1.971,-5.55c-1.442,-1.47 -3.457,-2.232 -5.51,-2.081l-8.836,0.647c-3.41,0.249 -6.141,2.926 -6.459,6.331l-0.728,7.807c-0.191,2.05 0.53,4.08 1.971,5.55c1.442,1.47 3.457,2.232 5.51,2.081l8.836,-0.647c3.41,-0.249 6.141,-2.926 6.459,-6.331l0.728,-7.807Z" style="fill:#808080;"/></g><path d="M3.266,2.803c9.255,3.568 16.483,7.557 19.739,12.371c-4.838,-4.997 -12.207,-8.28 -20.556,-10.899l0.817,-1.472Z" style="fill:#fff;"/><path d="M26.23,28.587c-7.909,-1.795 -13.875,-3.898 -15.331,-6.713c1.262,3.535 6.432,5.884 14.033,7.495l1.298,-0.782Z" style="fill:#fff;"/><path d="M28.748,24.75c-7.312,-1.445 -12.666,-3.23 -14.092,-5.694c2.267,2.232 7.863,3.632 14.659,4.733l-0.567,0.961Z" style="fill:#fff;"/></svg>