<?xml version="1.0" encoding="UTF-8" standalone="no"?>
<!DOCTYPE svg PUBLIC "-//W3C//DTD SVG 1.1//EN" "http://www.w3.org/Graphics/SVG/1.1/DTD/svg11.dtd">
<svg width="100%" height="100%" viewBox="0 0 540 540" version="1.1" xmlns="http://www.w3.org/2000/svg" xmlns:xlink="http://www.w3.org/1999/xlink" xml:space="preserve" xmlns:serif="http://www.serif.com/" style="fill-rule:evenodd;clip-rule:evenodd;stroke-linejoin:round;stroke-miterlimit:2;">
    <g transform="matrix(0.742077,0,0,0.742077,7.73769,69.6392)">
        <path d="M439.628,374.119L464.257,410.94C449.405,431.411 431.411,449.405 410.94,464.257L374.091,439.609C356.217,450.578 336.723,458.653 316.329,463.535L307.701,507.02C282.724,510.993 257.276,510.993 232.299,507.02L223.671,463.535C203.277,458.653 183.783,450.578 165.909,439.609L129.06,464.257C108.589,449.405 90.595,431.411 75.743,410.94L100.391,374.091C89.422,356.217 81.347,336.723 76.465,316.329L32.98,307.701C29.007,282.724 29.007,257.276 32.98,232.299L76.465,223.671C81.347,203.277 89.422,183.783 100.391,165.909L75.743,129.06C90.595,108.589 108.589,90.595 129.06,75.743L165.909,100.391C183.783,89.422 203.277,81.347 223.671,76.465L232.299,32.98C257.276,29.007 282.724,29.007 307.701,32.98L316.329,76.465C336.723,81.347 356.217,89.422 374.091,100.391L410.94,75.743C431.411,90.595 449.405,108.589 464.257,129.06L439.628,165.881L333.68,165.881C315.137,154.508 293.328,147.949 270,147.949C202.638,147.949 147.949,202.638 147.949,270C147.949,337.362 202.638,392.051 270,392.051C293.328,392.051 315.137,385.492 333.68,374.119L439.628,374.119Z" style="fill:white;"/>
    </g>
    <g transform="matrix(0.628961,0,0,1.22223,189.23,-60.0028)">
        <path d="M78.206,303.746C64.708,308.863 48.035,311.887 30,311.887C-14.925,311.887 -51.398,293.118 -51.398,270C-51.398,246.882 -14.925,228.113 30,228.113C48.035,228.113 64.708,231.137 78.206,236.254L313.27,236.254L313.27,168.763L510,270L313.27,371.237L313.27,303.746L78.206,303.746Z" style="fill:white;"/>
    </g>
</svg>
