<?xml version="1.0" encoding="UTF-8" standalone="no"?>
<!DOCTYPE svg PUBLIC "-//W3C//DTD SVG 1.1//EN" "http://www.w3.org/Graphics/SVG/1.1/DTD/svg11.dtd">
<svg width="100%" height="100%" viewBox="0 0 540 540" version="1.1" xmlns="http://www.w3.org/2000/svg" xmlns:xlink="http://www.w3.org/1999/xlink" xml:space="preserve" xmlns:serif="http://www.serif.com/" style="fill-rule:evenodd;clip-rule:evenodd;stroke-linejoin:round;stroke-miterlimit:2;">
    <g transform="matrix(1,0,0,0.982378,0,0)">
        <ellipse cx="270" cy="274.843" rx="270" ry="274.843"/>
    </g>
    <g transform="matrix(0.888889,0,0,0.873225,30,30)">
        <ellipse cx="270" cy="274.843" rx="270" ry="274.843"/>
    </g>
    <g transform="matrix(0.890712,0,0,0.890712,-8.92461,41.5805)">
        <circle cx="159.351" cy="334.832" r="76.167" style="fill:white;"/>
    </g>
    <g transform="matrix(0.890712,0,0,0.890712,15.222,45.518)">
        <path d="M84.159,430.407L98.978,422.366C170.557,439.188 215.503,408.04 223.211,347.385L362.284,282.674L383.453,268.518C383.453,268.518 425.883,251.684 439.104,254.244C458.774,258.053 463.994,265.537 466.002,290.016C468.446,319.822 432.915,329.03 398.059,337.129C391.277,338.705 248.166,432.193 248.166,432.193L249.889,519.064C173.625,508.139 119.598,470.086 84.159,430.407Z" style="fill:white;"/>
    </g>
    <g transform="matrix(0.707282,-0.20998,0.196642,0.662355,108.571,64.1558)">
        <path d="M270,38.334L211.557,122.873L235.172,334.135L186.18,334.116C186.18,334.116 166.348,334.115 166.348,346.136C166.348,375.392 239.939,390.745 239.939,390.745L299.996,390.732C299.996,390.732 373.652,376.274 373.652,346.185C373.652,333.696 353.837,334.153 353.837,334.153L304.824,334.135L328.443,122.894L270,38.334Z" style="fill:white;"/>
    </g>
    <g transform="matrix(0.701611,-0.228214,0.233935,0.719201,102.904,75.4733)">
        <path d="M300.07,462.772L239.92,463.298L232.29,482.343C232.29,482.343 233.399,511.82 270,511.82C306.601,511.82 307.71,482.387 307.71,482.387L300.07,462.772Z" style="fill:white;"/>
    </g>
</svg>
