<?xml version="1.0" encoding="UTF-8" standalone="no"?>
<!DOCTYPE svg PUBLIC "-//W3C//DTD SVG 1.1//EN" "http://www.w3.org/Graphics/SVG/1.1/DTD/svg11.dtd">
<svg width="100%" height="100%" viewBox="0 0 540 540" version="1.1" xmlns="http://www.w3.org/2000/svg" xmlns:xlink="http://www.w3.org/1999/xlink" xml:space="preserve" xmlns:serif="http://www.serif.com/" style="fill-rule:evenodd;clip-rule:evenodd;stroke-linejoin:round;stroke-miterlimit:2;">
    <g transform="matrix(1,0,0,0.982378,0,0)">
        <ellipse cx="270" cy="274.843" rx="270" ry="274.843"/>
    </g>
    <g transform="matrix(0.888889,0,0,0.873225,30,30)">
        <ellipse cx="270" cy="274.843" rx="270" ry="274.843"/>
    </g>
    <g transform="matrix(0.720676,0,0,0.720676,72.124,81.7345)">
        <path d="M228.505,272.618C232.89,247.861 154.638,200.525 153.278,107.62C188.627,147.501 204.014,144.061 219.512,132.212C232.239,122.481 186.963,76.708 257.463,14.149C241.492,92.008 299.052,54.491 307.847,46.994C336.145,22.872 354.634,-38.787 345.003,-61.447C406.751,-46.718 380.562,70.53 412.214,93.495C434.235,109.472 499.921,123.105 512.057,44.391C579.445,141.991 475.386,155.6 465.142,219.692C460.01,251.8 479.791,265.007 530.308,239.185C500.258,350.171 337.706,333.169 337.706,333.169C341.492,325.112 345.685,319.118 348.779,313.29C393.303,310.052 419.562,287.727 441.262,277.245C373.393,262.026 431.223,162.438 436.702,161.174C426.957,171.894 357.256,157.304 349.905,92.81C340.076,124.836 305.106,152.175 273.028,127.031C277.862,155.755 264.288,182.684 218.099,180.51C220.88,198.472 240.917,214.619 243.946,252.388C238.214,260.463 234.757,264.803 228.505,272.618Z" style="fill:white;"/>
    </g>
    <g transform="matrix(0.890712,0,0,0.890712,-8.92461,41.5805)">
        <circle cx="159.351" cy="334.832" r="76.167" style="fill:white;"/>
    </g>
    <g transform="matrix(0.890712,0,0,0.890712,15.222,45.518)">
        <path d="M84.159,430.407L98.978,422.366C170.557,439.188 215.503,408.04 223.211,347.385L278.779,249.219C278.779,249.219 270.084,214.302 276.765,205.583C286.508,192.868 307.049,213.312 307.049,213.312C307.049,213.312 311.952,186.856 324.527,182.039C343.237,174.872 359.539,178.735 370.696,200.615C379.594,218.063 363.238,251.223 337.935,276.527C333.012,281.45 248.166,432.193 248.166,432.193L249.889,519.064C173.625,508.139 119.598,470.086 84.159,430.407Z" style="fill:white;"/>
    </g>
</svg>
