<?xml version="1.0" encoding="UTF-8" standalone="no"?>
<!DOCTYPE svg PUBLIC "-//W3C//DTD SVG 1.1//EN" "http://www.w3.org/Graphics/SVG/1.1/DTD/svg11.dtd">
<svg width="100%" height="100%" viewBox="0 0 540 540" version="1.1" xmlns="http://www.w3.org/2000/svg" xmlns:xlink="http://www.w3.org/1999/xlink" xml:space="preserve" xmlns:serif="http://www.serif.com/" style="fill-rule:evenodd;clip-rule:evenodd;stroke-linejoin:round;stroke-miterlimit:2;">
    <g transform="matrix(3.50801,2.02535,-1.88171,3.25922,-7125.54,-5360.59)">
        <path d="M2287.07,306.069C2287.07,307.48 2287.36,308.758 2288.5,309.444C2279.71,315.02 2296.85,367.663 2285.83,374.817C2280.31,377.079 2274.56,377.311 2268.51,374.817C2257.79,368.099 2274.4,314.885 2265.93,309.452C2267.16,308.73 2267.36,307.216 2267.36,306.069L2287.07,306.069Z" style="fill:white;"/>
    </g>
    <g transform="matrix(3.21915,1.85857,-1.71839,2.97634,-6519.9,-4889.97)">
        <path d="M2242.31,253.42C2265.54,245.287 2288.77,245.146 2312,253.42L2319.9,260.299L2314.22,296.343L2307.37,302.006L2246.94,302.006L2240.09,296.343L2234.41,260.299L2242.31,253.42Z" style="fill:white;"/>
    </g>
</svg>
