<?xml version="1.0" encoding="UTF-8" standalone="no"?>
<!DOCTYPE svg PUBLIC "-//W3C//DTD SVG 1.1//EN" "http://www.w3.org/Graphics/SVG/1.1/DTD/svg11.dtd">
<svg width="100%" height="100%" viewBox="0 0 30 30" version="1.1" xmlns="http://www.w3.org/2000/svg" xmlns:xlink="http://www.w3.org/1999/xlink" xml:space="preserve" xmlns:serif="http://www.serif.com/" style="fill-rule:evenodd;clip-rule:evenodd;stroke-linecap:round;stroke-linejoin:round;stroke-miterlimit:10;">
    <g transform="matrix(3.76281e-17,-0.614514,-0.414416,-2.53757e-17,193.717,902.204)">
        <path d="M1445.05,411.622L1442.45,411.622C1442.17,408.591 1440.41,406.259 1438.29,406.259L1425,406.259C1422.68,406.259 1420.79,409.053 1420.79,412.5L1420.79,450C1420.79,453.447 1422.68,456.241 1425,456.241L1438.29,456.241C1440.41,456.241 1442.17,453.909 1442.45,450.878L1445.05,450.878C1445.33,453.909 1447.09,456.241 1449.21,456.241L1462.5,456.241C1464.82,456.241 1466.71,453.447 1466.71,450L1466.71,412.5C1466.71,409.053 1464.82,406.259 1462.5,406.259L1449.21,406.259C1447.09,406.259 1445.33,408.591 1445.05,411.622Z" style="fill:rgb(253,246,227);fill-opacity:0.1;"/>
    </g>
    <g transform="matrix(3.76281e-17,-0.614514,-0.414416,-2.53757e-17,193.717,902.204)">
        <path d="M1438.29,444.638L1438.29,450L1425,450L1425,412.5L1438.29,412.5L1438.29,417.862L1449.21,417.862L1449.21,412.5L1462.5,412.5L1462.5,450L1449.21,450L1449.21,444.638L1438.29,444.638Z" style="fill:none;stroke:rgb(253,246,227);stroke-width:3.82px;"/>
    </g>
</svg>
