<?xml version="1.0" encoding="UTF-8" standalone="no"?>
<!DOCTYPE svg PUBLIC "-//W3C//DTD SVG 1.1//EN" "http://www.w3.org/Graphics/SVG/1.1/DTD/svg11.dtd">
<svg width="100%" height="100%" viewBox="0 0 30 30" version="1.1" xmlns="http://www.w3.org/2000/svg" xmlns:xlink="http://www.w3.org/1999/xlink" xml:space="preserve" xmlns:serif="http://www.serif.com/" style="fill-rule:evenodd;clip-rule:evenodd;stroke-linecap:round;stroke-linejoin:round;stroke-miterlimit:10;">
    <g transform="matrix(3.76281e-17,-0.614514,-0.414416,-2.53757e-17,193.717,902.204)">
        <path d="M1438.29,444.638L1438.29,450L1425,450L1425,412.5L1438.29,412.5L1438.29,417.862L1449.21,417.862L1449.21,412.5L1462.5,412.5L1462.5,450L1449.21,450L1449.21,444.638L1438.29,444.638Z" style="fill:none;stroke:rgb(253,246,227);stroke-width:3.82px;"/>
    </g>
    <g transform="matrix(3.76281e-17,-0.614514,-0.414416,-2.53757e-17,193.717,902.204)">
        <path d="M1453.6,443.375L1458.03,443.375L1458.03,419.125L1453.6,419.125C1453.2,422.18 1451.39,424.487 1449.21,424.487L1438.29,424.487C1436.11,424.487 1434.3,422.18 1433.9,419.125L1429.47,419.125L1429.47,443.375L1433.9,443.375C1434.3,440.32 1436.11,438.013 1438.29,438.013L1449.21,438.013C1451.39,438.013 1453.2,440.32 1453.6,443.375Z" style="fill:rgb(253,246,227);"/>
    </g>
</svg>
