<?xml version="1.0" encoding="UTF-8" standalone="no"?>
<!DOCTYPE svg PUBLIC "-//W3C//DTD SVG 1.1//EN" "http://www.w3.org/Graphics/SVG/1.1/DTD/svg11.dtd">
<svg width="100%" height="100%" viewBox="0 0 540 540" version="1.1" xmlns="http://www.w3.org/2000/svg" xmlns:xlink="http://www.w3.org/1999/xlink" xml:space="preserve" xmlns:serif="http://www.serif.com/" style="fill-rule:evenodd;clip-rule:evenodd;stroke-linejoin:round;stroke-miterlimit:2;">
    <g transform="matrix(1.32487,0.354997,-0.354997,1.32487,-44.5735,-123.09)">
        <path d="M181.98,204.983L181.98,199.621C181.98,175.331 211.278,155.611 249.979,155.611L314.01,155.611C338.3,155.611 358.02,175.331 358.02,199.621L358.02,340.379C358.02,364.669 338.3,384.389 314.01,384.389L262.514,384.389C202.525,384.389 181.98,334.266 181.98,283.733L181.98,224.226L243.559,281.634L330.943,200.169L342.949,201.401L353.815,187.856L326.941,184.657L243.559,262.391L181.98,204.983ZM243.319,208.403C237.678,208.403 233.099,214.856 233.099,222.804C233.099,230.752 237.678,237.206 243.319,237.206C248.96,237.206 253.54,230.752 253.54,222.804C253.54,214.856 248.96,208.403 243.319,208.403Z" style="fill:white;"/>
    </g>
    <g transform="matrix(1.32487,0.354997,-0.108459,0.404776,-52.4297,-93.7703)">
        <path d="M182.774,298.1C182.255,289.108 181.98,279.694 181.98,270C181.98,206.867 193.666,155.611 208.059,155.611L331.941,155.611C333.217,155.611 334.472,156.014 335.699,156.792C323.464,158.194 315.742,207.715 315.742,269.882C315.742,279.619 316.013,289.073 316.523,298.1L182.774,298.1ZM343.849,345.641C347.723,340.422 346.334,384.389 331.941,384.389L208.059,384.389C198.794,384.389 190.651,363.153 186.025,331.182C185.839,329.895 300.804,328.587 326.496,328.5C329.01,328.492 318.169,221.885 336.517,190.32C341.655,181.48 355.133,198.145 351.218,270.98C349.04,311.501 342.02,333.429 340.656,283.836C339.868,255.204 348.021,281.935 347.714,270.792C345.749,199.47 336.73,191.188 334.114,247.877C332.381,285.437 336.025,356.181 343.849,345.641Z" style="fill:white;"/>
    </g>
    <g transform="matrix(1.0743,0.287857,-0.287857,1.0743,42.7796,-127.639)">
        <path d="M359.889,213.727C367.935,210.726 376.422,209.12 385.19,209.12C442.488,209.12 460.882,268.81 460.882,335.383C460.882,343.016 450.207,352.054 449.199,359.304C441.258,416.425 431.007,455.06 385.563,455.296C386.123,451.629 386.371,436.751 386.371,436.751C425.215,435.758 422.022,391.813 427.64,357.719C428.652,351.577 422.964,343.082 422.964,336.527C422.964,288.5 407.755,245.189 385.19,245.189C384.126,245.189 383.067,245.224 382.015,245.294C377.524,232.896 369.811,222.036 359.889,213.727Z" style="fill:white;"/>
    </g>
</svg>
