<?xml version="1.0" encoding="UTF-8" standalone="no"?>
<!DOCTYPE svg PUBLIC "-//W3C//DTD SVG 1.1//EN" "http://www.w3.org/Graphics/SVG/1.1/DTD/svg11.dtd">
<svg width="100%" height="100%" viewBox="0 0 540 540" version="1.1" xmlns="http://www.w3.org/2000/svg" xmlns:xlink="http://www.w3.org/1999/xlink" xml:space="preserve" xmlns:serif="http://www.serif.com/" style="fill-rule:evenodd;clip-rule:evenodd;stroke-linejoin:round;stroke-miterlimit:2;">
    <g transform="matrix(1,0,0,0.982378,0,0)">
        <ellipse cx="270" cy="274.843" rx="270" ry="274.843"/>
    </g>
    <g transform="matrix(0.888889,0,0,0.873225,30,30)">
        <ellipse cx="270" cy="274.843" rx="270" ry="274.843"/>
    </g>
    <g transform="matrix(0.890712,0,0,0.890712,-8.92461,41.5805)">
        <circle cx="159.351" cy="334.832" r="76.167" style="fill:white;"/>
    </g>
    <g transform="matrix(0.890712,0,0,0.890712,15.222,45.518)">
        <path d="M84.159,430.407L98.978,422.366C170.557,439.188 215.503,408.04 223.211,347.385L362.284,282.674L383.453,268.518C383.453,268.518 422.721,245.361 435.942,247.921C455.613,251.729 463.994,265.537 466.002,290.016C468.446,319.822 432.915,329.03 398.059,337.129C391.277,338.705 248.166,432.193 248.166,432.193L249.889,519.064C173.625,508.139 119.598,470.086 84.159,430.407Z" style="fill:white;"/>
    </g>
    <g transform="matrix(0.660371,-0.329013,0.308114,0.618424,70.9052,117.613)">
        <path d="M304.824,334.135L235.172,334.135C250.494,346.196 251.246,358.302 238.23,370.449L239.939,390.745L299.996,390.732L301.455,373.633C288.074,357.24 292.6,344.831 304.824,334.135Z" style="fill:white;"/>
    </g>
    <g transform="matrix(0.89477,-0.446528,0.385916,0.773313,-5.12152,173.709)">
        <path d="M300.864,262.463L282.53,262.463C247.114,262.463 218.361,211.02 218.361,147.657C218.361,84.294 247.114,32.852 282.53,32.852L300.864,32.852C336.279,32.852 365.032,84.294 365.032,147.657C365.032,211.02 336.279,262.463 300.864,262.463ZM303.843,55.683C275.47,55.683 252.435,96.895 252.435,147.657C252.435,198.419 275.47,239.632 303.843,239.632C332.216,239.632 355.25,198.419 355.25,147.657C355.25,96.895 332.216,55.683 303.843,55.683Z" style="fill:white;"/>
    </g>
    <g transform="matrix(0.526601,-0.262796,0.220175,0.441195,140.124,161.95)">
        <path d="M219.24,166.683C218.662,160.494 218.361,154.138 218.361,147.657C218.361,84.294 247.114,32.852 282.53,32.852C317.945,32.852 346.698,84.294 346.698,147.657C346.698,180.26 339.086,209.706 326.871,230.613C330.759,216.786 332.948,201.171 332.948,184.649C332.948,128.075 307.276,82.144 275.655,82.144C247.459,82.144 223.993,118.663 219.24,166.683Z" style="fill:white;"/>
    </g>
    <g transform="matrix(0.651635,-0.345993,0.354667,0.667972,65.4016,127.627)">
        <path d="M300.07,462.772L239.92,463.298C250.942,471.259 246.527,477.385 232.29,482.343C232.29,482.343 233.399,511.82 270,511.82C306.601,511.82 307.71,482.387 307.71,482.387C296.204,477.945 292.382,471.705 300.07,462.772Z" style="fill:white;"/>
    </g>
</svg>
