<?xml version="1.0" encoding="UTF-8" standalone="no"?>
<!DOCTYPE svg PUBLIC "-//W3C//DTD SVG 1.1//EN" "http://www.w3.org/Graphics/SVG/1.1/DTD/svg11.dtd">
<svg width="100%" height="100%" viewBox="0 0 40 40" version="1.1" xmlns="http://www.w3.org/2000/svg" xmlns:xlink="http://www.w3.org/1999/xlink" xml:space="preserve" xmlns:serif="http://www.serif.com/" style="fill-rule:evenodd;clip-rule:evenodd;stroke-linejoin:round;stroke-miterlimit:2;">
    <path d="M32.917,13.5L26.819,7.417L28.565,5.63C29.188,5.006 29.947,4.69 30.84,4.681C31.734,4.671 32.537,4.995 33.25,5.653L34.75,7.111C35.463,7.787 35.787,8.569 35.722,9.458C35.657,10.347 35.315,11.101 34.695,11.721L32.917,13.5ZM6.953,35.556C6.344,35.556 5.827,35.343 5.402,34.918C4.977,34.492 4.764,33.975 4.764,33.366L4.764,30.349C4.764,30.061 4.819,29.785 4.931,29.521C5.042,29.257 5.204,29.019 5.417,28.806L24.847,9.375L30.986,15.444L11.555,34.903C11.343,35.116 11.095,35.278 10.813,35.389C10.532,35.5 10.251,35.556 9.972,35.556L6.953,35.556Z" style="fill:white;fill-rule:nonzero;"/>
</svg>
