<?xml version="1.0" encoding="UTF-8" standalone="no"?>
<!DOCTYPE svg PUBLIC "-//W3C//DTD SVG 1.1//EN" "http://www.w3.org/Graphics/SVG/1.1/DTD/svg11.dtd">
<svg width="100%" height="100%" viewBox="0 0 540 540" version="1.1" xmlns="http://www.w3.org/2000/svg" xmlns:xlink="http://www.w3.org/1999/xlink" xml:space="preserve" xmlns:serif="http://www.serif.com/" style="fill-rule:evenodd;clip-rule:evenodd;stroke-linejoin:round;stroke-miterlimit:2;">
    <g transform="matrix(1.19557,0,0,0.967284,9.64746,146.773)">
        <path d="M226.645,37.224L265.698,37.224C275.452,37.224 284.047,45.146 286.83,56.7L315.897,177.359C317.683,184.772 316.532,192.791 312.791,198.992C309.051,205.192 303.161,208.845 296.903,208.845L294.129,208.845C287.683,208.845 282.033,203.515 280.332,195.83L258.973,99.306L252.838,145.85L285.976,327.474C287.45,335.552 285.872,344.021 281.688,350.489C277.503,356.956 271.167,360.722 264.467,360.722L257.632,360.722C247.146,360.722 238.11,351.594 236.024,338.892L217.765,227.752L199.506,338.892C197.42,351.594 188.384,360.722 177.898,360.722L171.063,360.722C164.363,360.722 158.027,356.956 153.842,350.489C149.658,344.021 148.08,335.552 149.554,327.474L182.692,145.85L176.557,99.306L155.929,192.526C153.797,202.162 146.712,208.845 138.63,208.845L138.627,208.845C132.369,208.845 126.479,205.192 122.739,198.992C118.998,192.791 117.847,184.772 119.633,177.359L148.7,56.7C151.483,45.146 160.078,37.224 169.832,37.224L208.885,37.224C205.726,40.412 203.707,45.262 203.707,50.69C203.707,60.28 210.006,68.066 217.765,68.066C225.524,68.066 231.823,60.28 231.823,50.69C231.823,45.262 229.804,40.412 226.645,37.224Z" style="fill:white;"/>
    </g>
    <g transform="matrix(1.36246,0,0,1.36246,-81.8887,-23.6254)">
        <path d="M252.637,136.856L252.781,132.842C253.058,125.101 254.919,120.829 256.121,118.356C257.745,115.012 261.073,110.333 266.188,104.364L266.196,104.354C269.566,100.474 271.709,94.799 272.72,91.402C273.737,87.984 274.247,84.525 274.247,81.023C274.247,74.188 272.546,68.714 268.913,64.678C265.476,60.858 261.27,58.929 256.278,58.929C251.898,58.929 248.41,59.83 245.892,61.894C243.846,63.572 242.623,65.277 242.623,67.241C242.623,69.055 243.477,71.244 244.948,73.891C247.266,78.064 248.248,81.296 248.248,83.46C248.248,86.768 247.155,89.533 245.042,91.784C242.832,94.138 240.137,95.304 236.966,95.304C233.283,95.304 229.839,93.655 226.814,90.016C224.156,86.818 222.684,82.412 222.684,76.71C222.684,68.577 226.085,61.337 233.066,55.075C239.775,49.058 248.829,45.928 260.31,45.928C274.584,45.928 284.999,50.296 291.723,58.609C296.82,64.842 299.341,71.757 299.341,79.335C299.341,84.385 298.238,89.578 295.99,94.905C293.723,100.275 289.407,106.612 283.053,111.052L283.045,111.057C274.483,116.978 269.181,121.099 267.262,123.572C265.628,125.677 264.457,129.739 264.371,133.079L264.275,136.856L252.637,136.856Z" style="fill:white;"/>
    </g>
</svg>
