<?xml version="1.0" encoding="UTF-8" standalone="no"?>
<!DOCTYPE svg PUBLIC "-//W3C//DTD SVG 1.1//EN" "http://www.w3.org/Graphics/SVG/1.1/DTD/svg11.dtd">
<svg width="100%" height="100%" viewBox="0 0 540 540" version="1.1" xmlns="http://www.w3.org/2000/svg" xmlns:xlink="http://www.w3.org/1999/xlink" xml:space="preserve" xmlns:serif="http://www.serif.com/" style="fill-rule:evenodd;clip-rule:evenodd;stroke-linejoin:round;stroke-miterlimit:2;">
    <g transform="matrix(0.466389,3.08419e-17,-6.16839e-17,1.1112,88.0286,-132.445)">
        <path d="M201.446,298.773L30.88,298.773C20.222,298.773 11.583,295.147 11.583,290.674L11.583,249.326C11.583,244.853 20.222,241.227 30.88,241.227L201.446,241.227L201.446,169.637C201.446,165.164 210.086,161.538 220.743,161.538L319.257,161.538C329.914,161.538 338.554,165.164 338.554,169.637L338.554,241.227L509.12,241.227C519.778,241.227 528.417,244.853 528.417,249.326L528.417,290.674C528.417,295.147 519.778,298.773 509.12,298.773L338.554,298.773L338.554,370.363C338.554,374.836 329.914,378.462 319.257,378.462L220.743,378.462C210.086,378.462 201.446,374.836 201.446,370.363L201.446,298.773Z" style="fill:white;"/>
    </g>
    <g transform="matrix(0.466293,3.08356e-17,-6.16711e-17,1.11097,204.501,70.6932)">
        <path d="M201.442,298.775L30.88,298.775C20.22,298.775 11.579,295.148 11.579,290.674L11.579,249.326C11.579,244.852 20.22,241.225 30.88,241.225L201.442,241.225L201.442,169.637C201.442,165.163 210.084,161.536 220.743,161.536L319.257,161.536C329.916,161.536 338.558,165.163 338.558,169.637L338.558,241.225L509.12,241.225C519.78,241.225 528.421,244.852 528.421,249.326L528.421,290.674C528.421,295.148 519.78,298.775 509.12,298.775L338.558,298.775L338.558,370.363C338.558,374.837 329.916,378.464 319.257,378.464L220.743,378.464C210.084,378.464 201.442,374.837 201.442,370.363L201.442,298.775Z" style="fill:white;"/>
    </g>
</svg>
