<?xml version="1.0" encoding="UTF-8" standalone="no"?>
<!DOCTYPE svg PUBLIC "-//W3C//DTD SVG 1.1//EN" "http://www.w3.org/Graphics/SVG/1.1/DTD/svg11.dtd">
<svg width="100%" height="100%" viewBox="0 0 540 540" version="1.1" xmlns="http://www.w3.org/2000/svg" xmlns:xlink="http://www.w3.org/1999/xlink" xml:space="preserve" xmlns:serif="http://www.serif.com/" style="fill-rule:evenodd;clip-rule:evenodd;stroke-linejoin:round;stroke-miterlimit:2;">
    <g transform="matrix(4.31923e-17,-0.705384,0.720276,4.41042e-17,-25.9588,361.362)">
        <path d="M458.534,410.896L232.904,636.526L182.664,586.286L358.054,410.896L182.664,235.506L232.904,185.266L458.534,410.896ZM263.028,410.896L37.398,636.526L-12.842,586.286L162.548,410.896L-12.842,235.506L37.398,185.266L263.028,410.896Z" style="fill:white;"/>
    </g>
    <g transform="matrix(1.07755,0,0,1.07755,-20.9388,-24.9041)">
        <path d="M270,311.897L289.697,372.518L353.438,372.518L301.871,409.984L321.568,470.605L270,433.139L218.432,470.605L238.129,409.984L186.562,372.518L250.303,372.518L270,311.897Z" style="fill:white;"/>
    </g>
</svg>
