<?xml version="1.0" encoding="UTF-8" standalone="no"?>
<!DOCTYPE svg PUBLIC "-//W3C//DTD SVG 1.1//EN" "http://www.w3.org/Graphics/SVG/1.1/DTD/svg11.dtd">
<svg width="100%" height="100%" viewBox="0 0 540 540" version="1.1" xmlns="http://www.w3.org/2000/svg" xmlns:xlink="http://www.w3.org/1999/xlink" xml:space="preserve" xmlns:serif="http://www.serif.com/" style="fill-rule:evenodd;clip-rule:evenodd;stroke-linejoin:round;stroke-miterlimit:2;">
    <g transform="matrix(0.934725,0,0,0.934725,17.6243,17.6243)">
        <path d="M270,30C297.992,30 347.588,163.21 347.588,163.21C347.588,163.21 489.604,169.214 498.254,195.836C506.903,222.457 395.539,310.79 395.539,310.79C395.539,310.79 433.714,447.711 411.068,464.164C388.423,480.617 270,402 270,402C270,402 151.577,480.617 128.932,464.164C106.286,447.711 144.461,310.79 144.461,310.79C144.461,310.79 33.097,222.457 41.746,195.836C50.396,169.214 192.412,163.21 192.412,163.21C192.412,163.21 242.008,30 270,30Z" style="fill:white;"/>
    </g>
</svg>
