<?xml version="1.0" encoding="UTF-8" standalone="no"?>
<!DOCTYPE svg PUBLIC "-//W3C//DTD SVG 1.1//EN" "http://www.w3.org/Graphics/SVG/1.1/DTD/svg11.dtd">
<svg width="100%" height="100%" viewBox="0 0 540 540" version="1.1" xmlns="http://www.w3.org/2000/svg" xmlns:xlink="http://www.w3.org/1999/xlink" xml:space="preserve" xmlns:serif="http://www.serif.com/" style="fill-rule:evenodd;clip-rule:evenodd;stroke-linejoin:round;stroke-miterlimit:2;">
    <g transform="matrix(1,0,0,0.982378,0,0)">
        <ellipse cx="270" cy="274.843" rx="270" ry="274.843"/>
    </g>
    <g transform="matrix(0.888889,0,0,0.873225,30,30)">
        <ellipse cx="270" cy="274.843" rx="270" ry="274.843"/>
    </g>
    <g transform="matrix(0.890712,0,0,0.890712,-8.92461,41.5805)">
        <circle cx="159.351" cy="334.832" r="76.167" style="fill:white;"/>
    </g>
    <g transform="matrix(0.890712,0,0,0.890712,15.222,45.518)">
        <path d="M84.159,430.407L98.978,422.366C170.557,439.188 215.503,408.04 223.211,347.385L278.779,249.219C278.779,249.219 270.084,214.302 276.765,205.583C286.508,192.868 300.463,224.839 300.463,224.839L335.178,281.308L248.166,432.193L249.889,519.064C173.625,508.139 119.598,470.086 84.159,430.407Z" style="fill:white;"/>
    </g>
    <g transform="matrix(0.866025,-0.5,0.5,0.866025,-133.939,177.916)">
        <path d="M336.45,155.854L336.45,130.072C336.45,124.768 338.557,119.681 342.308,115.93C346.058,112.179 351.145,110.072 356.45,110.072L384.056,110.072C389.36,110.072 394.447,112.179 398.198,115.93C401.949,119.681 404.056,124.768 404.056,130.072L404.056,155.854L336.45,155.854Z" style="fill:white;"/>
    </g>
    <g transform="matrix(0.866025,-0.5,0.5,0.866025,-133.939,177.916)">
        <path d="M336.45,390.092L336.45,165.594L404.056,165.594L404.056,390.092L387.154,384.386L370.253,394.781L353.351,384.386L336.45,390.092Z" style="fill:white;"/>
    </g>
    <g transform="matrix(0.866025,-0.5,0.5,0.866025,-133.939,177.916)">
        <path d="M345.323,395.648L343.227,400.46L358.315,423.232C359.613,423.232 380.866,423.278 382.164,423.278L397.155,400.527L395.344,395.704L403.605,398.576C403.085,401.352 402.123,404.004 400.756,406.389L379.634,443.239C377.537,446.897 374.019,449.093 370.253,449.093C366.487,449.093 362.969,446.897 360.872,443.239L339.75,406.389C338.383,404.004 337.421,401.352 336.901,398.576L345.323,395.648Z" style="fill:white;"/>
    </g>
</svg>
