<?xml version="1.0" encoding="UTF-8" standalone="no"?>
<!DOCTYPE svg PUBLIC "-//W3C//DTD SVG 1.1//EN" "http://www.w3.org/Graphics/SVG/1.1/DTD/svg11.dtd">
<svg width="100%" height="100%" viewBox="0 0 540 540" version="1.1" xmlns="http://www.w3.org/2000/svg" xmlns:xlink="http://www.w3.org/1999/xlink" xml:space="preserve" xmlns:serif="http://www.serif.com/" style="fill-rule:evenodd;clip-rule:evenodd;stroke-linejoin:round;stroke-miterlimit:2;">
    <g transform="matrix(1,0,0,0.982378,0,0)">
        <ellipse cx="270" cy="274.843" rx="270" ry="274.843"/>
    </g>
    <g transform="matrix(0.888889,0,0,0.873225,30,30)">
        <ellipse cx="270" cy="274.843" rx="270" ry="274.843"/>
    </g>
    <g transform="matrix(0.890712,0,0,0.890712,-8.92461,41.5805)">
        <circle cx="159.351" cy="334.832" r="76.167" style="fill:white;"/>
    </g>
    <g transform="matrix(0.890712,0,0,0.890712,15.222,45.518)">
        <path d="M84.159,430.407L98.978,422.366C170.557,439.188 215.503,408.04 223.211,347.385L327.833,287.912C327.833,287.912 338.515,276.973 345.577,275.864C358.061,273.903 389.514,273.587 402.735,276.146C422.405,279.955 438.501,286.583 440.509,311.062C442.953,340.868 414.739,323.946 379.883,332.046C373.101,333.622 248.166,432.193 248.166,432.193L249.889,519.064C173.625,508.139 119.598,470.086 84.159,430.407Z" style="fill:white;"/>
    </g>
    <g transform="matrix(1.27183,-3.02464e-17,-1.81479e-16,1.14165,-181.376,-107.742)">
        <path d="M415.777,194.47C431.119,160.369 461.805,160.369 477.147,177.419C492.49,194.47 492.49,228.571 477.147,262.672C466.407,288.248 438.791,313.823 415.777,330.874C392.763,313.823 365.147,288.248 354.407,262.672C339.064,228.571 339.064,194.47 354.407,177.419C369.749,160.369 400.434,160.369 415.777,194.47Z" style="fill:white;"/>
    </g>
</svg>
