<?xml version="1.0" encoding="UTF-8" standalone="no"?>
<!DOCTYPE svg PUBLIC "-//W3C//DTD SVG 1.1//EN" "http://www.w3.org/Graphics/SVG/1.1/DTD/svg11.dtd">
<svg width="100%" height="100%" viewBox="0 0 540 540" version="1.1" xmlns="http://www.w3.org/2000/svg" xmlns:xlink="http://www.w3.org/1999/xlink" xml:space="preserve" xmlns:serif="http://www.serif.com/" style="fill-rule:evenodd;clip-rule:evenodd;stroke-linecap:round;stroke-linejoin:round;stroke-miterlimit:1.5;">
    <g transform="matrix(1.09976,0.634945,-0.506878,0.877938,112.496,-142.936)">
        <path d="M270,38.334L211.557,122.873L235.172,334.135L186.18,334.116C186.18,334.116 166.348,334.115 166.348,346.136C166.348,375.392 239.939,390.745 239.939,390.745L239.92,463.298L232.29,482.343C232.29,482.343 233.399,511.82 270,511.82C306.601,511.82 307.71,482.387 307.71,482.387L300.07,462.772L299.996,390.732C299.996,390.732 373.652,376.274 373.652,346.185C373.652,333.696 353.837,334.153 353.837,334.153L304.824,334.135L328.443,122.894L270,38.334Z" style="fill:white;stroke:black;stroke-width:0.87px;"/>
    </g>
</svg>
