<?xml version="1.0" encoding="UTF-8" standalone="no"?><!DOCTYPE svg PUBLIC "-//W3C//DTD SVG 1.1//EN" "http://www.w3.org/Graphics/SVG/1.1/DTD/svg11.dtd"><svg width="32px" height="32px" version="1.1" xmlns="http://www.w3.org/2000/svg" xmlns:xlink="http://www.w3.org/1999/xlink" xml:space="preserve" xmlns:serif="http://www.serif.com/" style="fill-rule:evenodd;clip-rule:evenodd;stroke-linejoin:round;stroke-miterlimit:2;"><rect id="d100-inverted" x="0" y="-0" width="32" height="32" style="fill:none;"/><circle cx="16" cy="16" r="14" style="fill:#4d4d4d;"/><path d="M16,2c7.727,0 14,6.273 14,14c-0,7.727 -6.273,14 -14,14c-7.727,-0 -14,-6.273 -14,-14c0,-7.727 6.273,-14 14,-14Zm0,1.8c-6.733,0 -12.2,5.467 -12.2,12.2c0,6.733 5.467,12.2 12.2,12.2c6.733,-0 12.2,-5.467 12.2,-12.2c-0,-6.733 -5.467,-12.2 -12.2,-12.2Z" style="fill:#4d4d4d;"/><path d="M12.543,3.492c2.073,-1.461 4.841,-1.461 6.914,-0c2.288,1.613 5.285,3.726 7.613,5.366c2.166,1.527 3.074,4.296 2.232,6.809c-0.868,2.593 -1.974,5.894 -2.833,8.46c-0.819,2.446 -3.11,4.095 -5.689,4.095c-2.888,-0 -6.672,-0 -9.56,-0c-2.579,-0 -4.87,-1.649 -5.689,-4.095c-0.859,-2.566 -1.965,-5.867 -2.833,-8.46c-0.842,-2.513 0.066,-5.282 2.232,-6.809c2.328,-1.64 5.325,-3.753 7.613,-5.366Z" style="fill:#404040;"/><path d="M12.543,3.492c2.073,-1.461 4.841,-1.461 6.914,-0l7.613,5.366c2.166,1.527 3.074,4.296 2.232,6.809l-2.833,8.46c-0.819,2.446 -3.11,4.095 -5.689,4.095l-9.56,-0c-2.579,-0 -4.87,-1.649 -5.689,-4.095l-2.833,-8.46c-0.842,-2.513 0.066,-5.282 2.232,-6.809l7.613,-5.366Zm1.152,1.635l-7.612,5.366c-1.445,1.018 -2.05,2.864 -1.489,4.539l2.833,8.46c0.547,1.631 2.074,2.73 3.793,2.73l9.56,-0c1.719,-0 3.246,-1.099 3.793,-2.73l2.833,-8.46c0.561,-1.675 -0.044,-3.521 -1.489,-4.539l-7.612,-5.366c-1.382,-0.975 -3.228,-0.975 -4.61,-0Z" style="fill:#808080;"/><path d="M16,2c7.727,0 14,6.273 14,14c-0,7.727 -6.273,14 -14,14c-7.727,-0 -14,-6.273 -14,-14c0,-7.727 6.273,-14 14,-14Zm0,1.8c-6.733,0 -12.2,5.467 -12.2,12.2c0,6.733 5.467,12.2 12.2,12.2c6.733,-0 12.2,-5.467 12.2,-12.2c-0,-6.733 -5.467,-12.2 -12.2,-12.2Z" style="fill:#bfbfbf;"/></svg>