<?xml version="1.0" encoding="UTF-8" standalone="no"?><!DOCTYPE svg PUBLIC "-//W3C//DTD SVG 1.1//EN" "http://www.w3.org/Graphics/SVG/1.1/DTD/svg11.dtd"><svg width="32px" height="32px" version="1.1" xmlns="http://www.w3.org/2000/svg" xmlns:xlink="http://www.w3.org/1999/xlink" xml:space="preserve" xmlns:serif="http://www.serif.com/" style="fill-rule:evenodd;clip-rule:evenodd;stroke-linejoin:round;stroke-miterlimit:2;"><rect id="d12-inverted" x="0" y="-0" width="32" height="32" style="fill:none;"/><path d="M3.218,18.653c-0.825,-1.672 -0.825,-3.636 0,-5.308c-0.06,-0.778 -0.148,-1.552 -0.263,-2.319c-0.23,-1.413 0.575,-2.79 1.918,-3.283c0.775,-0.295 1.542,-0.617 2.298,-0.965c1.085,-1.64 2.907,-2.647 4.878,-2.689c0.726,-0.473 1.432,-0.97 2.115,-1.488c1.08,-0.84 2.592,-0.84 3.672,0.001c0.683,0.518 1.389,1.014 2.115,1.487c1.97,0.042 3.792,1.048 4.876,2.687c0.758,0.348 1.525,0.67 2.301,0.965c1.344,0.493 2.149,1.871 1.919,3.285c-0.116,0.768 -0.204,1.542 -0.265,2.321c0.825,1.672 0.825,3.636 -0,5.308c0.06,0.778 0.148,1.552 0.263,2.319c0.23,1.413 -0.575,2.79 -1.918,3.283c-0.775,0.295 -1.542,0.617 -2.298,0.965c-1.085,1.64 -2.907,2.647 -4.878,2.689c-0.726,0.473 -1.432,0.97 -2.115,1.488c-1.08,0.84 -2.592,0.84 -3.672,-0.001c-0.683,-0.518 -1.389,-1.014 -2.115,-1.487c-1.97,-0.042 -3.792,-1.048 -4.876,-2.687c-0.758,-0.348 -1.525,-0.67 -2.301,-0.965c-1.344,-0.493 -2.149,-1.871 -1.919,-3.285c0.116,-0.768 0.204,-1.542 0.265,-2.321Z" style="fill:#808080;"/><path d="M3.218,18.653c-0.825,-1.672 -0.825,-3.636 0,-5.308c-0.06,-0.778 -0.148,-1.552 -0.263,-2.319c-0.23,-1.413 0.575,-2.79 1.918,-3.283c0.775,-0.295 1.542,-0.617 2.298,-0.965c1.085,-1.64 2.907,-2.647 4.878,-2.689c0.726,-0.473 1.432,-0.97 2.115,-1.488c1.08,-0.84 2.592,-0.84 3.672,0.001c0.683,0.518 1.389,1.014 2.115,1.487c1.97,0.042 3.792,1.048 4.876,2.687c0.758,0.348 1.525,0.67 2.301,0.965c1.344,0.493 2.149,1.871 1.919,3.285c-0.116,0.768 -0.204,1.542 -0.265,2.321c0.825,1.672 0.825,3.636 -0,5.308c0.06,0.778 0.148,1.552 0.263,2.319c0.23,1.413 -0.575,2.79 -1.918,3.283c-0.775,0.295 -1.542,0.617 -2.298,0.965c-1.085,1.64 -2.907,2.647 -4.878,2.689c-0.726,0.473 -1.432,0.97 -2.115,1.488c-1.08,0.84 -2.592,0.84 -3.672,-0.001c-0.683,-0.518 -1.389,-1.014 -2.115,-1.487c-1.97,-0.042 -3.792,-1.048 -4.876,-2.687c-0.758,-0.348 -1.525,-0.67 -2.301,-0.965c-1.344,-0.493 -2.149,-1.871 -1.919,-3.285c0.116,-0.768 0.204,-1.542 0.265,-2.321Zm1.994,0.157c-0.065,0.825 -0.159,1.647 -0.281,2.461c-0.001,0.008 -0.002,0.016 -0.004,0.025c-0.076,0.467 0.191,0.923 0.635,1.086c0.007,0.003 0.014,0.005 0.021,0.008c0.817,0.311 1.626,0.65 2.424,1.016c0.339,0.155 0.628,0.403 0.834,0.714c0.723,1.093 1.937,1.763 3.25,1.791c0.374,0.008 0.737,0.12 1.05,0.324c0.766,0.499 1.511,1.023 2.232,1.57c0.007,0.005 0.013,0.01 0.02,0.015c0.357,0.278 0.857,0.278 1.215,0c0.006,-0.005 0.013,-0.01 0.019,-0.015c0.721,-0.547 1.466,-1.071 2.232,-1.57c0.313,-0.204 0.677,-0.316 1.05,-0.324c1.313,-0.028 2.528,-0.699 3.251,-1.792c0.206,-0.312 0.495,-0.559 0.834,-0.715c0.797,-0.366 1.605,-0.705 2.421,-1.016c0.007,-0.003 0.015,-0.006 0.023,-0.009c0.443,-0.162 0.709,-0.617 0.633,-1.084c-0.001,-0.008 -0.003,-0.016 -0.004,-0.025c-0.122,-0.814 -0.215,-1.634 -0.279,-2.459c-0.028,-0.359 0.041,-0.719 0.2,-1.042c0.55,-1.114 0.55,-2.423 0,-3.538c-0.159,-0.322 -0.228,-0.682 -0.2,-1.041c0.065,-0.825 0.159,-1.647 0.281,-2.461c0.001,-0.008 0.002,-0.016 0.004,-0.025c0.076,-0.467 -0.191,-0.923 -0.635,-1.086c-0.007,-0.003 -0.014,-0.005 -0.021,-0.008c-0.817,-0.311 -1.626,-0.65 -2.424,-1.016c-0.339,-0.155 -0.628,-0.403 -0.834,-0.714c-0.723,-1.093 -1.937,-1.763 -3.25,-1.791c-0.374,-0.008 -0.737,-0.12 -1.05,-0.324c-0.766,-0.499 -1.511,-1.023 -2.232,-1.57c-0.007,-0.005 -0.013,-0.01 -0.02,-0.015c-0.357,-0.278 -0.857,-0.278 -1.215,-0c-0.006,0.005 -0.013,0.01 -0.019,0.015c-0.721,0.547 -1.466,1.071 -2.232,1.57c-0.313,0.204 -0.677,0.316 -1.05,0.324c-1.313,0.028 -2.528,0.699 -3.251,1.792c-0.206,0.312 -0.495,0.559 -0.834,0.715c-0.797,0.366 -1.605,0.705 -2.421,1.016c-0.007,0.003 -0.015,0.006 -0.023,0.009c-0.443,0.162 -0.709,0.617 -0.633,1.084c0.001,0.008 0.003,0.016 0.004,0.025c0.122,0.814 0.215,1.634 0.279,2.459c0.028,0.359 -0.041,0.719 -0.2,1.042c-0.55,1.114 -0.55,2.423 -0,3.538c0.159,0.322 0.228,0.682 0.2,1.041Z" style="fill:#808080;"/><path d="M28.534,12.894c1.155,1.91 1.155,4.302 0,6.212c-1.105,1.827 -2.494,4.123 -3.576,5.912c-1.087,1.796 -3.034,2.894 -5.134,2.894c-2.305,0 -5.343,0 -7.648,0c-2.1,0 -4.047,-1.098 -5.134,-2.894c-1.082,-1.789 -2.471,-4.085 -3.576,-5.912c-1.155,-1.91 -1.155,-4.302 -0,-6.212c1.105,-1.827 2.494,-4.123 3.576,-5.912c1.087,-1.796 3.034,-2.894 5.134,-2.894c2.305,-0 5.343,-0 7.648,-0c2.1,-0 4.047,1.098 5.134,2.894c1.082,1.789 2.471,4.085 3.576,5.912Z" style="fill:#404040;"/><path d="M28.534,12.894c1.155,1.91 1.155,4.302 0,6.212l-3.576,5.912c-1.087,1.796 -3.034,2.894 -5.134,2.894l-7.648,0c-2.1,0 -4.047,-1.098 -5.134,-2.894l-3.576,-5.912c-1.155,-1.91 -1.155,-4.302 -0,-6.212l3.576,-5.912c1.087,-1.796 3.034,-2.894 5.134,-2.894l7.648,-0c2.1,-0 4.047,1.098 5.134,2.894l3.576,5.912Zm-1.711,1.036l-3.577,-5.913c-0.724,-1.197 -2.022,-1.929 -3.422,-1.929l-7.648,-0c-1.4,-0 -2.698,0.732 -3.422,1.929l-3.577,5.913c-0.77,1.272 -0.77,2.868 -0,4.141l3.577,5.912c0.724,1.197 2.022,1.929 3.422,1.929l7.648,0c1.4,0 2.698,-0.732 3.422,-1.929l3.577,-5.913c0.77,-1.272 0.77,-2.868 0,-4.14Z" style="fill:#808080;"/><path d="M3.218,18.653c-0.825,-1.672 -0.825,-3.636 0,-5.308c-0.06,-0.778 -0.148,-1.552 -0.263,-2.319c-0.23,-1.413 0.575,-2.79 1.918,-3.283c0.775,-0.295 1.542,-0.617 2.298,-0.965c1.085,-1.64 2.907,-2.647 4.878,-2.689c0.726,-0.473 1.432,-0.97 2.115,-1.488c1.08,-0.84 2.592,-0.84 3.672,0.001c0.683,0.518 1.389,1.014 2.115,1.487c1.97,0.042 3.792,1.048 4.876,2.687c0.758,0.348 1.525,0.67 2.301,0.965c1.344,0.493 2.149,1.871 1.919,3.285c-0.116,0.768 -0.204,1.542 -0.265,2.321c0.825,1.672 0.825,3.636 -0,5.308c0.06,0.778 0.148,1.552 0.263,2.319c0.23,1.413 -0.575,2.79 -1.918,3.283c-0.775,0.295 -1.542,0.617 -2.298,0.965c-1.085,1.64 -2.907,2.647 -4.878,2.689c-0.726,0.473 -1.432,0.97 -2.115,1.488c-1.08,0.84 -2.592,0.84 -3.672,-0.001c-0.683,-0.518 -1.389,-1.014 -2.115,-1.487c-1.97,-0.042 -3.792,-1.048 -4.876,-2.687c-0.758,-0.348 -1.525,-0.67 -2.301,-0.965c-1.344,-0.493 -2.149,-1.871 -1.919,-3.285c0.116,-0.768 0.204,-1.542 0.265,-2.321Zm1.994,0.157c-0.065,0.825 -0.159,1.647 -0.281,2.461c-0.001,0.008 -0.002,0.016 -0.004,0.025c-0.076,0.467 0.191,0.923 0.635,1.086c0.007,0.003 0.014,0.005 0.021,0.008c0.817,0.311 1.626,0.65 2.424,1.016c0.339,0.155 0.628,0.403 0.834,0.714c0.723,1.093 1.937,1.763 3.25,1.791c0.374,0.008 0.737,0.12 1.05,0.324c0.766,0.499 1.511,1.023 2.232,1.57c0.007,0.005 0.013,0.01 0.02,0.015c0.357,0.278 0.857,0.278 1.215,0c0.006,-0.005 0.013,-0.01 0.019,-0.015c0.721,-0.547 1.466,-1.071 2.232,-1.57c0.313,-0.204 0.677,-0.316 1.05,-0.324c1.313,-0.028 2.528,-0.699 3.251,-1.792c0.206,-0.312 0.495,-0.559 0.834,-0.715c0.797,-0.366 1.605,-0.705 2.421,-1.016c0.007,-0.003 0.015,-0.006 0.023,-0.009c0.443,-0.162 0.709,-0.617 0.633,-1.084c-0.001,-0.008 -0.003,-0.016 -0.004,-0.025c-0.122,-0.814 -0.215,-1.634 -0.279,-2.459c-0.028,-0.359 0.041,-0.719 0.2,-1.042c0.55,-1.114 0.55,-2.423 0,-3.538c-0.159,-0.322 -0.228,-0.682 -0.2,-1.041c0.065,-0.825 0.159,-1.647 0.281,-2.461c0.001,-0.008 0.002,-0.016 0.004,-0.025c0.076,-0.467 -0.191,-0.923 -0.635,-1.086c-0.007,-0.003 -0.014,-0.005 -0.021,-0.008c-0.817,-0.311 -1.626,-0.65 -2.424,-1.016c-0.339,-0.155 -0.628,-0.403 -0.834,-0.714c-0.723,-1.093 -1.937,-1.763 -3.25,-1.791c-0.374,-0.008 -0.737,-0.12 -1.05,-0.324c-0.766,-0.499 -1.511,-1.023 -2.232,-1.57c-0.007,-0.005 -0.013,-0.01 -0.02,-0.015c-0.357,-0.278 -0.857,-0.278 -1.215,-0c-0.006,0.005 -0.013,0.01 -0.019,0.015c-0.721,0.547 -1.466,1.071 -2.232,1.57c-0.313,0.204 -0.677,0.316 -1.05,0.324c-1.313,0.028 -2.528,0.699 -3.251,1.792c-0.206,0.312 -0.495,0.559 -0.834,0.715c-0.797,0.366 -1.605,0.705 -2.421,1.016c-0.007,0.003 -0.015,0.006 -0.023,0.009c-0.443,0.162 -0.709,0.617 -0.633,1.084c0.001,0.008 0.003,0.016 0.004,0.025c0.122,0.814 0.215,1.634 0.279,2.459c0.028,0.359 -0.041,0.719 -0.2,1.042c-0.55,1.114 -0.55,2.423 -0,3.538c0.159,0.322 0.228,0.682 0.2,1.041Z" style="fill:#bfbfbf;"/></svg>