<?xml version="1.0" encoding="UTF-8" standalone="no"?><!DOCTYPE svg PUBLIC "-//W3C//DTD SVG 1.1//EN" "http://www.w3.org/Graphics/SVG/1.1/DTD/svg11.dtd"><svg width="32px" height="32px" version="1.1" xmlns="http://www.w3.org/2000/svg" xmlns:xlink="http://www.w3.org/1999/xlink" xml:space="preserve" xmlns:serif="http://www.serif.com/" style="fill-rule:evenodd;clip-rule:evenodd;stroke-linejoin:round;stroke-miterlimit:2;"><rect id="d2" x="0" y="0" width="32" height="32" style="fill:none;"/><ellipse cx="15.975" cy="15.975" rx="14.025" ry="11.975" style="fill:#bfbfbf;"/><path d="M15.975,4c7.741,0 14.025,5.366 14.025,11.975c0,6.61 -6.284,11.976 -14.025,11.976c-7.74,-0 -14.024,-5.366 -14.024,-11.976c-0,-6.609 6.284,-11.975 14.024,-11.975Zm0,2c-6.557,0 -12.024,4.376 -12.024,9.975c-0,5.6 5.467,9.976 12.024,9.976c6.558,-0 12.025,-4.376 12.025,-9.976c0,-5.599 -5.467,-9.975 -12.025,-9.975Z" style="fill:#808080;"/></svg>