<?xml version="1.0" encoding="UTF-8" standalone="no"?><!DOCTYPE svg PUBLIC "-//W3C//DTD SVG 1.1//EN" "http://www.w3.org/Graphics/SVG/1.1/DTD/svg11.dtd"><svg width="32px" height="32px" version="1.1" xmlns="http://www.w3.org/2000/svg" xmlns:xlink="http://www.w3.org/1999/xlink" xml:space="preserve" xmlns:serif="http://www.serif.com/" style="fill-rule:evenodd;clip-rule:evenodd;stroke-linejoin:round;stroke-miterlimit:2;"><rect id="d30-inverted" x="0" y="-0" width="32" height="32" style="fill:none;"/><path d="M13.219,3.094c1.741,-0.911 3.819,-0.911 5.56,-0c2.238,1.17 5.384,2.815 7.731,4.042c1.979,1.035 3.219,3.084 3.219,5.317l0,7.094c0,2.233 -1.24,4.282 -3.219,5.317c-2.347,1.227 -5.493,2.872 -7.731,4.042c-1.741,0.911 -3.819,0.911 -5.56,0c-2.238,-1.17 -5.384,-2.815 -7.731,-4.042c-1.979,-1.035 -3.219,-3.084 -3.219,-5.317l-0,-7.094c-0,-2.233 1.24,-4.282 3.219,-5.317c2.347,-1.227 5.493,-2.872 7.731,-4.042Z" style="fill:#808080;"/><path d="M13.219,3.094c1.741,-0.911 3.819,-0.911 5.56,-0l7.731,4.042c1.979,1.035 3.219,3.084 3.219,5.317l0,7.094c0,2.233 -1.24,4.282 -3.219,5.317l-7.731,4.042c-1.741,0.911 -3.819,0.911 -5.56,0l-7.731,-4.042c-1.979,-1.035 -3.219,-3.084 -3.219,-5.317l-0,-7.094c-0,-2.233 1.24,-4.282 3.219,-5.317l7.731,-4.042Zm0.926,1.772l-7.73,4.043c-1.319,0.69 -2.146,2.055 -2.146,3.544l-0,7.094c-0,1.489 0.827,2.854 2.146,3.544l7.73,4.043c1.162,0.607 2.546,0.607 3.708,-0l7.73,-4.043c1.319,-0.69 2.146,-2.055 2.146,-3.544l0,-7.094c0,-1.489 -0.827,-2.854 -2.146,-3.544l-7.731,-4.043c-1.161,-0.607 -2.546,-0.607 -3.707,0Z" style="fill:#808080;"/><path d="M4.09,16c-0,-1.579 2.858,-9.365 4.24,-10.108c1.686,-0.907 4.83,-3.361 7.672,-3.361c2.842,-0 5.85,2.28 7.671,3.285c1.377,0.76 4.327,8.603 4.327,10.184c0,1.581 -2.95,9.424 -4.327,10.184c-1.821,1.005 -4.829,3.285 -7.671,3.285c-2.842,0 -5.986,-2.454 -7.672,-3.361c-1.382,-0.743 -4.24,-8.529 -4.24,-10.108Z" style="fill:#808080;"/><path d="M4.09,16c-0,-1.579 2.858,-9.365 4.24,-10.108c1.686,-0.907 4.83,-3.361 7.672,-3.361c2.842,-0 5.85,2.28 7.671,3.285c1.377,0.76 4.327,8.603 4.327,10.184c0,1.581 -2.95,9.424 -4.327,10.184c-1.821,1.005 -4.829,3.285 -7.671,3.285c-2.842,0 -5.986,-2.454 -7.672,-3.361c-1.382,-0.743 -4.24,-8.529 -4.24,-10.108Zm5.36,8.442c0.831,0.469 1.968,1.247 3.23,1.925c1.057,0.569 2.21,1.102 3.322,1.102c1.114,0 2.247,-0.493 3.294,-1.039c1.242,-0.647 2.37,-1.405 3.249,-1.906c0.118,-0.177 0.588,-0.888 0.883,-1.474c1.193,-2.376 2.572,-6.064 2.572,-7.05c0,-0.986 -1.379,-4.674 -2.572,-7.05c-0.295,-0.586 -0.765,-1.297 -0.883,-1.474c-0.879,-0.501 -2.007,-1.259 -3.249,-1.906c-1.047,-0.546 -2.18,-1.039 -3.294,-1.039c-1.112,-0 -2.265,0.533 -3.322,1.102c-1.262,0.678 -2.399,1.456 -3.23,1.925c-0.119,0.178 -0.571,0.868 -0.854,1.437c-1.172,2.356 -2.506,6.02 -2.506,7.005c-0,0.985 1.334,4.649 2.506,7.005c0.283,0.569 0.735,1.259 0.854,1.437Z" style="fill:#808080;"/><path d="M4.969,17.798c-0.587,-0.409 -0.936,-1.078 -0.936,-1.793c-0,-0.715 0.349,-1.385 0.935,-1.794c2.497,-1.745 6.259,-3.947 8.68,-5.522c1.413,-0.919 3.291,-0.919 4.704,-0c2.421,1.573 6.182,3.773 8.68,5.517c0.586,0.409 0.935,1.079 0.935,1.794c0,0.715 -0.349,1.385 -0.935,1.794c-2.498,1.744 -6.26,3.945 -8.681,5.518c-1.412,0.918 -3.29,0.918 -4.702,0.001c-2.421,-1.573 -6.183,-3.771 -8.68,-5.515Z" style="fill:#404040;"/><path d="M4.969,17.798c-0.587,-0.409 -0.936,-1.078 -0.936,-1.793c-0,-0.715 0.349,-1.385 0.935,-1.794c2.497,-1.745 6.259,-3.947 8.68,-5.522c1.413,-0.919 3.291,-0.919 4.704,-0c2.421,1.573 6.182,3.773 8.68,5.517c0.586,0.409 0.935,1.079 0.935,1.794c0,0.715 -0.349,1.385 -0.935,1.794c-2.498,1.744 -6.26,3.945 -8.681,5.518c-1.412,0.918 -3.29,0.918 -4.702,0.001c-2.421,-1.573 -6.183,-3.771 -8.68,-5.515Zm1.144,-1.64c2.482,1.732 6.22,3.915 8.625,5.478c0.758,0.492 1.765,0.492 2.523,-0.001c2.405,-1.563 6.144,-3.748 8.626,-5.481c0.05,-0.035 0.08,-0.093 0.08,-0.154c0,-0.061 -0.03,-0.119 -0.08,-0.154c-2.482,-1.733 -6.219,-3.917 -8.625,-5.481c-0.758,-0.492 -1.765,-0.492 -2.523,0.001c-2.406,1.564 -6.144,3.751 -8.626,5.484c-0.05,0.036 -0.08,0.093 -0.08,0.154c-0,0.062 0.03,0.119 0.08,0.154Z" style="fill:#404040;"/><path d="M4.969,18.237c-0.587,-0.509 -0.936,-1.342 -0.936,-2.231c-0,-0.889 0.349,-1.723 0.935,-2.232c2.497,-2.171 6.259,-4.91 8.68,-6.869c1.413,-1.143 3.291,-1.143 4.704,-0.001c2.421,1.958 6.182,4.695 8.68,6.864c0.586,0.51 0.935,1.343 0.935,2.232c0,0.889 -0.349,1.722 -0.935,2.231c-2.498,2.17 -6.26,4.908 -8.681,6.866c-1.412,1.141 -3.29,1.142 -4.702,0c-2.421,-1.956 -6.183,-4.691 -8.68,-6.86Z" style="fill:#404040;"/><path d="M4.969,18.237c-0.587,-0.509 -0.936,-1.342 -0.936,-2.231c-0,-0.889 0.349,-1.723 0.935,-2.232c2.497,-2.171 6.259,-4.91 8.68,-6.869c1.413,-1.143 3.291,-1.143 4.704,-0.001c2.421,1.958 6.182,4.695 8.68,6.864c0.586,0.51 0.935,1.343 0.935,2.232c0,0.889 -0.349,1.722 -0.935,2.231c-2.498,2.17 -6.26,4.908 -8.681,6.866c-1.412,1.141 -3.29,1.142 -4.702,0c-2.421,-1.956 -6.183,-4.691 -8.68,-6.86Zm1.311,-1.51c2.482,2.155 6.22,4.871 8.626,6.815c0.657,0.531 1.53,0.531 2.187,-0.001c2.406,-1.945 6.145,-4.664 8.627,-6.82c0.185,-0.16 0.247,-0.441 0.247,-0.721c0,-0.28 -0.062,-0.561 -0.247,-0.722c-2.481,-2.155 -6.22,-4.873 -8.625,-6.818c-0.658,-0.532 -1.532,-0.532 -2.189,-0c-2.406,1.946 -6.145,4.667 -8.626,6.824c-0.185,0.16 -0.247,0.441 -0.247,0.722c-0,0.28 0.062,0.56 0.247,0.721Z" style="fill:#404040;"/><path d="M13.209,2.754c1.747,-0.917 3.833,-0.917 5.58,0l8.004,4.204c1.974,1.037 3.21,3.083 3.21,5.312l-0,7.46c-0,2.229 -1.236,4.275 -3.21,5.312l-8.004,4.204c-1.747,0.917 -3.833,0.917 -5.58,-0l-8.004,-4.204c-1.974,-1.037 -3.21,-3.083 -3.21,-5.312l0,-7.46c0,-2.229 1.236,-4.275 3.21,-5.312l8.004,-4.204Zm0.93,1.771l-8.004,4.204c-1.316,0.691 -2.14,2.055 -2.14,3.541l0,7.46c0,1.486 0.824,2.85 2.14,3.541l8.004,4.204c1.164,0.612 2.555,0.612 3.72,0l8.004,-4.204c1.316,-0.691 2.14,-2.055 2.14,-3.541l-0,-7.46c-0,-1.486 -0.824,-2.85 -2.14,-3.541l-8.004,-4.204c-1.165,-0.612 -2.556,-0.612 -3.72,-0Z" style="fill:#bfbfbf;"/></svg>