<?xml version="1.0" encoding="UTF-8" standalone="no"?><!DOCTYPE svg PUBLIC "-//W3C//DTD SVG 1.1//EN" "http://www.w3.org/Graphics/SVG/1.1/DTD/svg11.dtd"><svg width="32px" height="32px" version="1.1" xmlns="http://www.w3.org/2000/svg" xmlns:xlink="http://www.w3.org/1999/xlink" xml:space="preserve" xmlns:serif="http://www.serif.com/" style="fill-rule:evenodd;clip-rule:evenodd;stroke-linejoin:round;stroke-miterlimit:2;"><rect id="d30" x="0" y="0" width="32" height="32" style="fill:none;"/><path d="M13.209,2.754c1.747,-0.917 3.833,-0.917 5.58,0c2.308,1.212 5.587,2.935 8.004,4.204c1.974,1.037 3.21,3.083 3.21,5.312c-0,2.272 -0,5.188 -0,7.46c-0,2.229 -1.236,4.275 -3.21,5.312c-2.417,1.269 -5.696,2.992 -8.004,4.204c-1.747,0.917 -3.833,0.917 -5.58,-0c-2.308,-1.212 -5.587,-2.935 -8.004,-4.204c-1.974,-1.037 -3.21,-3.083 -3.21,-5.312c0,-2.272 0,-5.188 0,-7.46c0,-2.229 1.236,-4.275 3.21,-5.312c2.417,-1.269 5.696,-2.992 8.004,-4.204Z" style="fill:#4d4d4d;"/><path d="M13.209,2.754c1.747,-0.917 3.833,-0.917 5.58,0l8.004,4.204c1.974,1.037 3.21,3.083 3.21,5.312l-0,7.46c-0,2.229 -1.236,4.275 -3.21,5.312l-8.004,4.204c-1.747,0.917 -3.833,0.917 -5.58,-0l-8.004,-4.204c-1.974,-1.037 -3.21,-3.083 -3.21,-5.312l0,-7.46c0,-2.229 1.236,-4.275 3.21,-5.312l8.004,-4.204Zm0.93,1.771l-8.004,4.204c-1.316,0.691 -2.14,2.055 -2.14,3.541l0,7.46c0,1.486 0.824,2.85 2.14,3.541l8.004,4.204c1.164,0.612 2.555,0.612 3.72,0l8.004,-4.204c1.316,-0.691 2.14,-2.055 2.14,-3.541l-0,-7.46c-0,-1.486 -0.824,-2.85 -2.14,-3.541l-8.004,-4.204c-1.165,-0.612 -2.556,-0.612 -3.72,-0Z" style="fill:#4d4d4d;"/><path d="M2.955,16c0,-1.576 3.603,-9.351 5.045,-10.094c1.758,-0.905 5.036,-3.698 8,-3.698c2.964,0 6.101,2.62 8,3.623c1.435,0.758 5.045,8.591 5.045,10.169c-0,1.579 -3.61,9.411 -5.045,10.169c-1.899,1.003 -5.036,3.623 -8,3.623c-2.964,-0 -6.242,-2.793 -8,-3.698c-1.442,-0.743 -5.045,-8.517 -5.045,-10.094Z" style="fill:#666;"/><path d="M2.955,16c0,-1.576 3.603,-9.351 5.045,-10.094c1.758,-0.905 5.036,-3.698 8,-3.698c2.964,0 6.101,2.62 8,3.623c1.435,0.758 5.045,8.591 5.045,10.169c-0,1.579 -3.61,9.411 -5.045,10.169c-1.899,1.003 -5.036,3.623 -8,3.623c-2.964,-0 -6.242,-2.793 -8,-3.698c-1.442,-0.743 -5.045,-8.517 -5.045,-10.094Zm2.013,0c0.05,0.192 0.22,0.827 0.407,1.332c0.476,1.293 1.227,2.957 1.994,4.407c0.597,1.128 1.543,2.456 1.68,2.647c0.891,0.483 2.125,1.373 3.496,2.163c1.101,0.633 2.298,1.243 3.455,1.243c1.159,-0 2.333,-0.57 3.422,-1.18c1.346,-0.755 2.57,-1.623 3.514,-2.142c0.138,-0.193 1.089,-1.54 1.689,-2.683c0.768,-1.463 1.521,-3.141 1.999,-4.443c0.187,-0.51 0.358,-1.152 0.408,-1.344c-0.05,-0.191 -0.221,-0.833 -0.409,-1.344c-0.478,-1.302 -1.23,-2.979 -1.998,-4.443c-0.6,-1.143 -1.551,-2.49 -1.689,-2.683c-0.944,-0.519 -2.168,-1.387 -3.514,-2.142c-1.089,-0.61 -2.263,-1.18 -3.422,-1.18c-1.157,0 -2.354,0.61 -3.455,1.243c-1.371,0.79 -2.605,1.68 -3.496,2.163c-0.137,0.191 -1.083,1.519 -1.68,2.647c-0.767,1.451 -1.518,3.115 -1.994,4.408c-0.187,0.505 -0.357,1.14 -0.407,1.331Z" style="fill:#666;"/><path d="M3.975,18.548c-0.639,-0.58 -1.02,-1.528 -1.02,-2.541c-0,-1.013 0.38,-1.962 1.019,-2.542c2.723,-2.473 6.823,-5.593 9.463,-7.824c1.539,-1.301 3.587,-1.302 5.127,-0c2.639,2.229 6.739,5.346 9.461,7.817c0.639,0.58 1.02,1.529 1.02,2.542c-0,1.013 -0.381,1.961 -1.02,2.541c-2.723,2.472 -6.823,5.59 -9.462,7.819c-1.54,1.301 -3.586,1.301 -5.126,0.001c-2.639,-2.228 -6.739,-5.343 -9.462,-7.813Z" style="fill:#bfbfbf;"/><path d="M3.975,18.548c-0.639,-0.58 -1.02,-1.528 -1.02,-2.541c-0,-1.013 0.38,-1.962 1.019,-2.542c2.723,-2.473 6.823,-5.593 9.463,-7.824c1.539,-1.301 3.587,-1.302 5.127,-0c2.639,2.229 6.739,5.346 9.461,7.817c0.639,0.58 1.02,1.529 1.02,2.542c-0,1.013 -0.381,1.961 -1.02,2.541c-2.723,2.472 -6.823,5.59 -9.462,7.819c-1.54,1.301 -3.586,1.301 -5.126,0.001c-2.639,-2.228 -6.739,-5.343 -9.462,-7.813Zm1.344,-1.481c2.707,2.455 6.785,5.551 9.408,7.766c0.765,0.646 1.781,0.645 2.545,-0c2.624,-2.217 6.702,-5.316 9.409,-7.773c0.262,-0.237 0.364,-0.646 0.364,-1.06c-0,-0.415 -0.102,-0.823 -0.364,-1.061c-2.707,-2.456 -6.784,-5.554 -9.408,-7.771c-0.764,-0.646 -1.781,-0.646 -2.545,0.001c-2.624,2.218 -6.702,5.318 -9.409,7.776c-0.262,0.238 -0.364,0.647 -0.364,1.061c0,0.415 0.102,0.823 0.364,1.061Z" style="fill:#808080;"/></svg>