<?xml version="1.0" encoding="UTF-8" standalone="no"?><!DOCTYPE svg PUBLIC "-//W3C//DTD SVG 1.1//EN" "http://www.w3.org/Graphics/SVG/1.1/DTD/svg11.dtd"><svg width="100%" height="100%" viewBox="0 0 8 8" version="1.1" xmlns="http://www.w3.org/2000/svg" xmlns:xlink="http://www.w3.org/1999/xlink" xml:space="preserve" xmlns:serif="http://www.serif.com/" style="fill-rule:evenodd;clip-rule:evenodd;stroke-linejoin:round;stroke-miterlimit:2;"><rect id="d6-outline" x="0" y="0" width="7.68" height="7.68" style="fill:none;"/><g id="d6-outline1" serif:id="d6-outline"><path d="M7.2,2.64l-0,2.4c0,0.573 -0.228,1.122 -0.633,1.527c-0.405,0.405 -0.954,0.633 -1.527,0.633l-2.4,-0c-0.573,0 -1.122,-0.228 -1.527,-0.633c-0.405,-0.405 -0.633,-0.954 -0.633,-1.527l0,-2.4c-0,-0.573 0.228,-1.122 0.633,-1.527c0.405,-0.405 0.954,-0.633 1.527,-0.633l2.4,0c0.573,-0 1.122,0.228 1.527,0.633c0.405,0.405 0.633,0.954 0.633,1.527Zm-0.48,0c0,-0.446 -0.177,-0.873 -0.492,-1.188c-0.315,-0.315 -0.742,-0.492 -1.188,-0.492l-2.4,-0c-0.446,-0 -0.873,0.177 -1.188,0.492c-0.315,0.315 -0.492,0.742 -0.492,1.188l-0,2.4c-0,0.446 0.177,0.873 0.492,1.188c0.315,0.315 0.742,0.492 1.188,0.492l2.4,0c0.446,0 0.873,-0.177 1.188,-0.492c0.315,-0.315 0.492,-0.742 0.492,-1.188l0,-2.4Z" style="fill:#ccc;"/></g></svg>