<?xml version="1.0" encoding="UTF-8" standalone="no"?><!DOCTYPE svg PUBLIC "-//W3C//DTD SVG 1.1//EN" "http://www.w3.org/Graphics/SVG/1.1/DTD/svg11.dtd"><svg width="32px" height="32px" version="1.1" xmlns="http://www.w3.org/2000/svg" xmlns:xlink="http://www.w3.org/1999/xlink" xml:space="preserve" xmlns:serif="http://www.serif.com/" style="fill-rule:evenodd;clip-rule:evenodd;stroke-linejoin:round;stroke-miterlimit:2;"><rect id="d8-inverted" x="0" y="-0" width="32" height="32" style="fill:none;"/><path d="M4,10.974l0,-2.974c-0,-1.061 0.421,-2.078 1.172,-2.828c0.75,-0.751 1.767,-1.172 2.828,-1.172l2.974,-0c1.416,-1.144 3.188,-1.776 5.026,-1.776c1.838,-0 3.61,0.632 5.026,1.776l2.974,0c1.061,-0 2.078,0.421 2.828,1.172c0.751,0.75 1.172,1.767 1.172,2.828l-0,2.974c1.144,1.416 1.776,3.188 1.776,5.026c0,1.838 -0.632,3.61 -1.776,5.026l-0,2.974c0,1.061 -0.421,2.078 -1.172,2.828c-0.75,0.751 -1.767,1.172 -2.828,1.172l-2.974,-0c-1.416,1.144 -3.188,1.776 -5.026,1.776c-1.838,0 -3.61,-0.632 -5.026,-1.776l-2.974,-0c-1.061,0 -2.078,-0.421 -2.828,-1.172c-0.751,-0.75 -1.172,-1.767 -1.172,-2.828l-0,-2.974c-1.144,-1.416 -1.776,-3.188 -1.776,-5.026c-0,-1.838 0.632,-3.61 1.776,-5.026Z" style="fill:#808080;"/><path d="M27.433,21.657c1.5,-1.5 2.343,-3.535 2.343,-5.657c0,-2.122 -0.843,-4.157 -2.343,-5.657c-1.857,-1.857 -3.919,-3.919 -5.776,-5.776c-1.5,-1.5 -3.535,-2.343 -5.657,-2.343c-2.122,-0 -4.157,0.843 -5.657,2.343c-1.857,1.857 -3.919,3.919 -5.776,5.776c-1.5,1.5 -2.343,3.535 -2.343,5.657c-0,2.122 0.843,4.157 2.343,5.657c1.857,1.857 3.919,3.919 5.776,5.776c1.5,1.5 3.535,2.343 5.657,2.343c2.122,0 4.157,-0.843 5.657,-2.343c1.857,-1.857 3.919,-3.919 5.776,-5.776Z" style="fill:#404040;"/><path d="M27.433,21.657l-5.776,5.776c-1.5,1.5 -3.535,2.343 -5.657,2.343c-2.122,0 -4.157,-0.843 -5.657,-2.343l-5.776,-5.776c-1.5,-1.5 -2.343,-3.535 -2.343,-5.657c-0,-2.122 0.843,-4.157 2.343,-5.657l5.776,-5.776c1.5,-1.5 3.535,-2.343 5.657,-2.343c2.122,-0 4.157,0.843 5.657,2.343l5.776,5.776c1.5,1.5 2.343,3.535 2.343,5.657c0,2.122 -0.843,4.157 -2.343,5.657Zm-1.414,-1.414c1.125,-1.126 1.757,-2.652 1.757,-4.243c0,-1.591 -0.632,-3.117 -1.757,-4.243l-5.776,-5.776c-1.126,-1.125 -2.652,-1.757 -4.243,-1.757c-1.591,-0 -3.117,0.632 -4.243,1.757l-5.776,5.776c-1.125,1.126 -1.757,2.652 -1.757,4.243c-0,1.591 0.632,3.117 1.757,4.243l5.776,5.776c1.126,1.125 2.652,1.757 4.243,1.757c1.591,0 3.117,-0.632 4.243,-1.757l5.776,-5.776Z" style="fill:#808080;"/><path d="M4,21.026c-1.144,-1.416 -1.776,-3.188 -1.776,-5.026c-0,-1.838 0.632,-3.61 1.776,-5.026l0,-2.974c-0,-1.061 0.421,-2.078 1.172,-2.828c0.75,-0.751 1.767,-1.172 2.828,-1.172l2.974,0c1.416,-1.144 3.188,-1.776 5.026,-1.776c1.838,-0 3.61,0.632 5.026,1.776l2.974,0c1.061,-0 2.078,0.421 2.828,1.172c0.751,0.75 1.172,1.767 1.172,2.828l-0,2.974c1.144,1.416 1.776,3.188 1.776,5.026c0,1.838 -0.632,3.61 -1.776,5.026l-0,2.974c0,1.061 -0.421,2.078 -1.172,2.828c-0.75,0.751 -1.767,1.172 -2.828,1.172l-2.974,0c-1.416,1.144 -3.188,1.776 -5.026,1.776c-1.838,0 -3.61,-0.632 -5.026,-1.776l-2.974,-0c-1.061,0 -2.078,-0.421 -2.828,-1.172c-0.751,-0.75 -1.172,-1.767 -1.172,-2.828l0,-2.974Zm2,0l-0,2.974c-0,0.53 0.211,1.039 0.586,1.414c0.375,0.375 0.884,0.586 1.414,0.586l2.974,0c0.457,0 0.901,0.157 1.256,0.444c1.063,0.858 2.392,1.332 3.77,1.332c1.378,0 2.707,-0.474 3.77,-1.332c0.355,-0.287 0.799,-0.444 1.256,-0.444l2.974,0c0.53,0 1.039,-0.211 1.414,-0.586c0.375,-0.375 0.586,-0.884 0.586,-1.414l0,-2.974c0,-0.457 0.157,-0.901 0.444,-1.256c0.858,-1.063 1.332,-2.392 1.332,-3.77c0,-1.378 -0.474,-2.707 -1.332,-3.77c-0.287,-0.355 -0.444,-0.799 -0.444,-1.256l0,-2.974c0,-0.53 -0.211,-1.039 -0.586,-1.414c-0.375,-0.375 -0.884,-0.586 -1.414,-0.586l-2.974,-0c-0.457,-0 -0.901,-0.157 -1.256,-0.444c-1.063,-0.858 -2.392,-1.332 -3.77,-1.332c-1.378,-0 -2.707,0.474 -3.77,1.332c-0.355,0.287 -0.799,0.444 -1.256,0.444l-2.974,-0c-0.53,-0 -1.039,0.211 -1.414,0.586c-0.375,0.375 -0.586,0.884 -0.586,1.414l-0,2.974c-0,0.457 -0.157,0.901 -0.444,1.256c-0.858,1.063 -1.332,2.392 -1.332,3.77c-0,1.378 0.474,2.707 1.332,3.77c0.287,0.355 0.444,0.799 0.444,1.256Z" style="fill:#bfbfbf;"/></svg>