<?xml version="1.0" encoding="UTF-8" standalone="no"?><!DOCTYPE svg PUBLIC "-//W3C//DTD SVG 1.1//EN" "http://www.w3.org/Graphics/SVG/1.1/DTD/svg11.dtd"><svg width="100%" height="100%" viewBox="0 0 8 8" version="1.1" xmlns="http://www.w3.org/2000/svg" xmlns:xlink="http://www.w3.org/1999/xlink" xml:space="preserve" xmlns:serif="http://www.serif.com/" style="fill-rule:evenodd;clip-rule:evenodd;stroke-linejoin:round;stroke-miterlimit:2;"><rect id="d8-outline" x="0" y="0" width="7.68" height="7.68" style="fill:none;"/><g id="d8-outline1" serif:id="d8-outline"><path d="M0.96,2.634l0,-0.714c-0,-0.255 0.101,-0.499 0.281,-0.679c0.18,-0.18 0.424,-0.281 0.679,-0.281l0.714,0c0.34,-0.275 0.765,-0.426 1.206,-0.426c0.441,-0 0.866,0.151 1.206,0.426l0.714,0c0.255,-0 0.499,0.101 0.679,0.281c0.18,0.18 0.281,0.424 0.281,0.679l-0,0.714c0.275,0.34 0.426,0.765 0.426,1.206c0,0.441 -0.151,0.866 -0.426,1.206l-0,0.714c0,0.255 -0.101,0.499 -0.281,0.679c-0.18,0.18 -0.424,0.281 -0.679,0.281l-0.714,-0c-0.34,0.275 -0.765,0.426 -1.206,0.426c-0.441,0 -0.866,-0.151 -1.206,-0.426l-0.714,-0c-0.255,0 -0.499,-0.101 -0.679,-0.281c-0.18,-0.18 -0.281,-0.424 -0.281,-0.679l-0,-0.714c-0.275,-0.34 -0.426,-0.765 -0.426,-1.206c-0,-0.441 0.151,-0.866 0.426,-1.206Zm0.373,0.301c-0.205,0.255 -0.319,0.574 -0.319,0.905c-0,0.331 0.114,0.65 0.319,0.905c0.069,0.085 0.107,0.192 0.107,0.301l-0,0.714c-0,0.127 0.051,0.249 0.141,0.339c0.09,0.09 0.212,0.141 0.339,0.141l0.714,-0c0.109,-0 0.216,0.038 0.301,0.107c0.255,0.205 0.574,0.319 0.905,0.319c0.331,0 0.65,-0.114 0.905,-0.319c0.085,-0.069 0.192,-0.107 0.301,-0.107l0.714,0c0.127,0 0.249,-0.051 0.339,-0.141c0.09,-0.09 0.141,-0.212 0.141,-0.339l-0,-0.714c0,-0.109 0.038,-0.216 0.107,-0.301c0.205,-0.255 0.319,-0.574 0.319,-0.905c0,-0.331 -0.114,-0.65 -0.319,-0.905c-0.069,-0.085 -0.107,-0.192 -0.107,-0.301l0,-0.714c0,-0.127 -0.051,-0.249 -0.141,-0.339c-0.09,-0.09 -0.212,-0.141 -0.339,-0.141l-0.714,0c-0.109,0 -0.216,-0.038 -0.301,-0.107c-0.255,-0.205 -0.574,-0.319 -0.905,-0.319c-0.331,-0 -0.65,0.114 -0.905,0.319c-0.085,0.069 -0.192,0.107 -0.301,0.107l-0.714,-0c-0.127,-0 -0.249,0.051 -0.339,0.141c-0.09,0.09 -0.141,0.212 -0.141,0.339l0,0.714c0,0.109 -0.038,0.216 -0.107,0.301Z" style="fill:#ccc;"/><path d="M6.584,5.198l-1.386,1.386c-0.36,0.36 -0.849,0.562 -1.358,0.562c-0.509,0 -0.998,-0.202 -1.358,-0.562l-1.386,-1.386c-0.36,-0.36 -0.562,-0.849 -0.562,-1.358c-0,-0.509 0.202,-0.998 0.562,-1.358l1.386,-1.386c0.36,-0.36 0.849,-0.562 1.358,-0.562c0.509,-0 0.998,0.202 1.358,0.562l1.386,1.386c0.36,0.36 0.562,0.849 0.562,1.358c0,0.509 -0.202,0.998 -0.562,1.358Zm-0.339,-0.34c0.27,-0.27 0.421,-0.636 0.421,-1.018c0,-0.382 -0.151,-0.748 -0.421,-1.018l-1.387,-1.387c-0.27,-0.27 -0.636,-0.421 -1.018,-0.421c-0.382,-0 -0.748,0.151 -1.018,0.421l-1.387,1.387c-0.27,0.27 -0.421,0.636 -0.421,1.018c-0,0.382 0.151,0.748 0.421,1.018l1.387,1.387c0.27,0.27 0.636,0.421 1.018,0.421c0.382,0 0.748,-0.151 1.018,-0.421l1.387,-1.387Z" style="fill:#ccc;"/></g></svg>