<?xml version="1.0" encoding="UTF-8" standalone="no"?><!DOCTYPE svg PUBLIC "-//W3C//DTD SVG 1.1//EN" "http://www.w3.org/Graphics/SVG/1.1/DTD/svg11.dtd"><svg width="32px" height="32px" version="1.1" xmlns="http://www.w3.org/2000/svg" xmlns:xlink="http://www.w3.org/1999/xlink" xml:space="preserve" xmlns:serif="http://www.serif.com/" style="fill-rule:evenodd;clip-rule:evenodd;stroke-linejoin:round;stroke-miterlimit:2;"><rect id="dE" x="0" y="0" width="32" height="32" style="fill:none;"/><path d="M30,11c0,-2.387 -0.948,-4.676 -2.636,-6.364c-1.688,-1.688 -3.977,-2.636 -6.364,-2.636l-10,0c-2.387,-0 -4.676,0.948 -6.364,2.636c-1.688,1.688 -2.636,3.977 -2.636,6.364l0,10c-0,2.387 0.948,4.676 2.636,6.364c1.688,1.688 3.977,2.636 6.364,2.636l10,0c2.387,0 4.676,-0.948 6.364,-2.636c1.688,-1.688 2.636,-3.977 2.636,-6.364l0,-10Z" style="fill:#bfbfbf;"/><path d="M30,11l0,10c0,2.387 -0.948,4.676 -2.636,6.364c-1.688,1.688 -3.977,2.636 -6.364,2.636l-10,-0c-2.387,0 -4.676,-0.948 -6.364,-2.636c-1.688,-1.688 -2.636,-3.977 -2.636,-6.364l0,-10c-0,-2.387 0.948,-4.676 2.636,-6.364c1.688,-1.688 3.977,-2.636 6.364,-2.636l10,0c2.387,-0 4.676,0.948 6.364,2.636c1.688,1.688 2.636,3.977 2.636,6.364Zm-2,0c0,-1.857 -0.737,-3.637 -2.05,-4.95c-1.313,-1.313 -3.093,-2.05 -4.95,-2.05l-10,-0c-1.857,-0 -3.637,0.737 -4.95,2.05c-1.313,1.313 -2.05,3.093 -2.05,4.95l-0,10c-0,1.857 0.737,3.637 2.05,4.95c1.313,1.313 3.093,2.05 4.95,2.05l10,0c1.857,0 3.637,-0.737 4.95,-2.05c1.313,-1.313 2.05,-3.093 2.05,-4.95l0,-10Z" style="fill:#808080;"/></svg>