<?xml version="1.0" encoding="UTF-8" standalone="no"?><!DOCTYPE svg PUBLIC "-//W3C//DTD SVG 1.1//EN" "http://www.w3.org/Graphics/SVG/1.1/DTD/svg11.dtd"><svg width="32px" height="32px" version="1.1" xmlns="http://www.w3.org/2000/svg" xmlns:xlink="http://www.w3.org/1999/xlink" xml:space="preserve" xmlns:serif="http://www.serif.com/" style="fill-rule:evenodd;clip-rule:evenodd;stroke-linejoin:round;stroke-miterlimit:2;"><rect id="dF-inverted" x="-0" y="0" width="32" height="32" style="fill:none;"/><path d="M29.489,8.511c-0,-1.591 -0.632,-3.117 -1.758,-4.242c-1.125,-1.126 -2.651,-1.758 -4.242,-1.758l-14.978,0c-1.591,0 -3.117,0.632 -4.242,1.758c-1.126,1.125 -1.758,2.651 -1.758,4.242l0,14.978c0,1.591 0.632,3.117 1.758,4.242c1.125,1.126 2.651,1.758 4.242,1.758l14.978,-0c1.591,-0 3.117,-0.632 4.242,-1.758c1.126,-1.125 1.758,-2.651 1.758,-4.242l-0,-14.978Z" style="fill:#808080;"/><path d="M29.489,8.511l-0,14.978c-0,1.591 -0.632,3.117 -1.758,4.242c-1.125,1.126 -2.651,1.758 -4.242,1.758l-14.978,-0c-1.591,-0 -3.117,-0.632 -4.242,-1.758c-1.126,-1.125 -1.758,-2.651 -1.758,-4.242l0,-14.978c0,-1.591 0.632,-3.117 1.758,-4.242c1.125,-1.126 2.651,-1.758 4.242,-1.758l14.978,0c1.591,0 3.117,0.632 4.242,1.758c1.126,1.125 1.758,2.651 1.758,4.242Zm-2,0c-0,-1.061 -0.422,-2.078 -1.172,-2.828c-0.75,-0.75 -1.767,-1.172 -2.828,-1.172l-14.978,0c-1.061,0 -2.078,0.422 -2.828,1.172c-0.75,0.75 -1.172,1.767 -1.172,2.828l0,14.978c0,1.061 0.422,2.078 1.172,2.828c0.75,0.75 1.767,1.172 2.828,1.172l14.978,-0c1.061,-0 2.078,-0.422 2.828,-1.172c0.75,-0.75 1.172,-1.767 1.172,-2.828l-0,-14.978Z" style="fill:#808080;"/><path d="M30,7.6c-3.091,0 -5.6,-2.509 -5.6,-5.6l-16.8,-0c0,3.091 -2.509,5.6 -5.6,5.6l-0,16.8c3.091,-0 5.6,2.509 5.6,5.6l16.8,0c-0,-3.091 2.509,-5.6 5.6,-5.6l-0,-16.8Z" style="fill:#404040;"/><path d="M30,7.6l0,16.8c-3.091,-0 -5.6,2.509 -5.6,5.6l-16.8,0c0,-3.091 -2.509,-5.6 -5.6,-5.6l-0,-16.8c3.091,0 5.6,-2.509 5.6,-5.6l16.8,-0c-0,3.091 2.509,5.6 5.6,5.6Zm-2,1.734c-2.588,-0.706 -4.629,-2.746 -5.334,-5.334c0,-0 -13.332,-0 -13.332,-0c-0.705,2.588 -2.746,4.628 -5.334,5.334c-0,-0 -0,13.332 -0,13.332c2.588,0.705 4.628,2.746 5.334,5.334c-0,0 13.332,0 13.332,0c0.705,-2.588 2.746,-4.628 5.334,-5.334l0,-13.332Z" style="fill:#808080;"/><path d="M2.586,7.57c0.197,-1.243 0.782,-2.401 1.683,-3.301c0.9,-0.901 2.058,-1.486 3.301,-1.683c0.02,-0.193 0.03,-0.388 0.03,-0.586l16.8,-0c-0,0.198 0.01,0.393 0.03,0.586c1.243,0.197 2.401,0.782 3.301,1.683c0.901,0.9 1.486,2.058 1.683,3.301c0.193,0.02 0.388,0.03 0.586,0.03l-0,16.8c-0.198,-0 -0.393,0.01 -0.586,0.03c-0.197,1.243 -0.782,2.401 -1.683,3.301c-0.9,0.901 -2.058,1.486 -3.301,1.683c-0.02,0.193 -0.03,0.388 -0.03,0.586l-16.8,0c0,-0.198 -0.01,-0.393 -0.03,-0.586c-1.243,-0.197 -2.401,-0.782 -3.301,-1.683c-0.901,-0.9 -1.486,-2.058 -1.683,-3.301c-0.193,-0.02 -0.388,-0.03 -0.586,-0.03l-0,-16.8c0.198,0 0.393,-0.01 0.586,-0.03Zm1.414,1.414l-0,14.032c0.291,0.291 0.493,0.672 0.561,1.1c0.131,0.829 0.521,1.601 1.122,2.201c0.6,0.601 1.372,0.991 2.201,1.122c0.428,0.068 0.809,0.27 1.1,0.561l14.032,0c0.291,-0.291 0.672,-0.493 1.1,-0.561c0.829,-0.131 1.601,-0.521 2.201,-1.122c0.601,-0.6 0.991,-1.372 1.122,-2.201c0.068,-0.428 0.27,-0.809 0.561,-1.1l-0,-14.032c-0.291,-0.291 -0.493,-0.672 -0.561,-1.1c-0.131,-0.829 -0.521,-1.601 -1.122,-2.201c-0.6,-0.601 -1.372,-0.991 -2.201,-1.122c-0.428,-0.068 -0.809,-0.27 -1.1,-0.561l-14.032,0c-0.291,0.291 -0.672,0.493 -1.1,0.561c-0.829,0.131 -1.601,0.521 -2.201,1.122c-0.601,0.6 -0.991,1.372 -1.122,2.201c-0.068,0.428 -0.27,0.809 -0.561,1.1Z" style="fill:#bfbfbf;"/></svg>