<?xml version="1.0" encoding="UTF-8" standalone="no"?><!DOCTYPE svg PUBLIC "-//W3C//DTD SVG 1.1//EN" "http://www.w3.org/Graphics/SVG/1.1/DTD/svg11.dtd"><svg width="100%" height="100%" viewBox="0 0 8 8" version="1.1" xmlns="http://www.w3.org/2000/svg" xmlns:xlink="http://www.w3.org/1999/xlink" xml:space="preserve" xmlns:serif="http://www.serif.com/" style="fill-rule:evenodd;clip-rule:evenodd;stroke-linejoin:round;stroke-miterlimit:2;"><rect id="dF-outline" x="0" y="-0" width="7.68" height="7.68" style="fill:none;"/><g id="dF-outline1" serif:id="dF-outline"><path d="M0.621,1.817c0.047,-0.298 0.187,-0.576 0.403,-0.793c0.217,-0.216 0.495,-0.356 0.793,-0.403c0.005,-0.047 0.007,-0.094 0.007,-0.141l4.032,-0c-0,0.047 0.002,0.094 0.007,0.141c0.298,0.047 0.576,0.187 0.793,0.403c0.216,0.217 0.356,0.495 0.403,0.793c0.047,0.005 0.094,0.007 0.141,0.007l0,4.032c-0.047,-0 -0.094,0.002 -0.141,0.007c-0.047,0.298 -0.187,0.576 -0.403,0.793c-0.217,0.216 -0.495,0.356 -0.793,0.403c-0.005,0.047 -0.007,0.094 -0.007,0.141l-4.032,0c0,-0.047 -0.002,-0.094 -0.007,-0.141c-0.298,-0.047 -0.576,-0.187 -0.793,-0.403c-0.216,-0.217 -0.356,-0.495 -0.403,-0.793c-0.047,-0.005 -0.094,-0.007 -0.141,-0.007l0,-4.032c0.047,0 0.094,-0.002 0.141,-0.007Zm0.339,0.339l0,3.368c0.07,0.07 0.118,0.161 0.135,0.264c0.031,0.199 0.125,0.384 0.269,0.528c0.144,0.144 0.329,0.238 0.528,0.269c0.103,0.017 0.194,0.065 0.264,0.135l3.368,-0c0.07,-0.07 0.161,-0.118 0.264,-0.135c0.199,-0.031 0.384,-0.125 0.528,-0.269c0.144,-0.144 0.238,-0.329 0.269,-0.528c0.017,-0.103 0.065,-0.194 0.135,-0.264l0,-3.368c-0.07,-0.07 -0.118,-0.161 -0.135,-0.264c-0.031,-0.199 -0.125,-0.384 -0.269,-0.528c-0.144,-0.144 -0.329,-0.238 -0.528,-0.269c-0.103,-0.017 -0.194,-0.065 -0.264,-0.135l-3.368,-0c-0.07,0.07 -0.161,0.118 -0.264,0.135c-0.199,0.031 -0.384,0.125 -0.528,0.269c-0.144,0.144 -0.238,0.329 -0.269,0.528c-0.017,0.103 -0.065,0.194 -0.135,0.264Z" style="fill:#ccc;"/><path d="M7.2,1.824l0,4.032c-0.742,-0 -1.344,0.602 -1.344,1.344l-4.032,0c0,-0.742 -0.602,-1.344 -1.344,-1.344l0,-4.032c0.742,0 1.344,-0.602 1.344,-1.344l4.032,-0c-0,0.742 0.602,1.344 1.344,1.344Zm-0.48,0.416c-0.621,-0.169 -1.111,-0.659 -1.28,-1.28c-0,-0 -3.2,-0 -3.2,-0c-0.169,0.621 -0.659,1.111 -1.28,1.28c0,0 0,3.2 -0,3.2c0.621,0.169 1.111,0.659 1.28,1.28c0,0 3.2,0 3.2,0c0.169,-0.621 0.659,-1.111 1.28,-1.28l0,-3.2Z" style="fill:#ccc;"/></g></svg>