<?xml version="1.0" encoding="UTF-8" standalone="no"?><!DOCTYPE svg PUBLIC "-//W3C//DTD SVG 1.1//EN" "http://www.w3.org/Graphics/SVG/1.1/DTD/svg11.dtd"><svg width="32px" height="32px" version="1.1" xmlns="http://www.w3.org/2000/svg" xmlns:xlink="http://www.w3.org/1999/xlink" xml:space="preserve" xmlns:serif="http://www.serif.com/" style="fill-rule:evenodd;clip-rule:evenodd;stroke-linejoin:round;stroke-miterlimit:2;"><rect id="dPow" x="0" y="0" width="32" height="32" style="fill:none;"/><path d="M13.209,2.754c1.747,-0.917 3.833,-0.917 5.58,0c2.308,1.212 5.587,2.935 8.004,4.204c1.974,1.037 3.21,3.083 3.21,5.312c-0,2.272 -0,5.188 -0,7.46c-0,2.229 -1.236,4.275 -3.21,5.312c-2.417,1.269 -5.696,2.992 -8.004,4.204c-1.747,0.917 -3.833,0.917 -5.58,-0c-2.308,-1.212 -5.587,-2.935 -8.004,-4.204c-1.974,-1.037 -3.21,-3.083 -3.21,-5.312c0,-2.272 0,-5.188 0,-7.46c0,-2.229 1.236,-4.275 3.21,-5.312c2.417,-1.269 5.696,-2.992 8.004,-4.204Z" style="fill:#4d4d4d;"/><path d="M13.209,2.754c1.747,-0.917 3.833,-0.917 5.58,0l8.004,4.204c1.974,1.037 3.21,3.083 3.21,5.312l-0,7.46c-0,2.229 -1.236,4.275 -3.21,5.312l-8.004,4.204c-1.747,0.917 -3.833,0.917 -5.58,-0l-8.004,-4.204c-1.974,-1.037 -3.21,-3.083 -3.21,-5.312l0,-7.46c0,-2.229 1.236,-4.275 3.21,-5.312l8.004,-4.204Zm0.93,1.771l-8.004,4.204c-1.316,0.691 -2.14,2.055 -2.14,3.541l0,7.46c0,1.486 0.824,2.85 2.14,3.541l8.004,4.204c1.164,0.612 2.555,0.612 3.72,0l8.004,-4.204c1.316,-0.691 2.14,-2.055 2.14,-3.541l-0,-7.46c-0,-1.486 -0.824,-2.85 -2.14,-3.541l-8.004,-4.204c-1.165,-0.612 -2.556,-0.612 -3.72,-0Z" style="fill:#4d4d4d;"/><path d="M3.338,18.683c-0.673,-0.61 -1.074,-1.609 -1.074,-2.676c-0,-1.066 0.4,-2.066 1.073,-2.676c2.867,-2.604 7.185,-5.889 9.964,-8.239c1.621,-1.37 3.777,-1.37 5.399,-0c2.779,2.347 7.096,5.63 9.962,8.232c0.673,0.61 1.074,1.609 1.074,2.676c-0,1.066 -0.401,2.065 -1.074,2.676c-2.867,2.602 -7.185,5.886 -9.964,8.233c-1.621,1.37 -3.776,1.37 -5.397,0.001c-2.778,-2.346 -7.096,-5.627 -9.963,-8.227Z" style="fill:#bfbfbf;"/><path d="M3.338,18.683c-0.673,-0.61 -1.074,-1.609 -1.074,-2.676c-0,-1.066 0.4,-2.066 1.073,-2.676c2.867,-2.604 7.185,-5.889 9.964,-8.239c1.621,-1.37 3.777,-1.37 5.399,-0c2.779,2.347 7.096,5.63 9.962,8.232c0.673,0.61 1.074,1.609 1.074,2.676c-0,1.066 -0.401,2.065 -1.074,2.676c-2.867,2.602 -7.185,5.886 -9.964,8.233c-1.621,1.37 -3.776,1.37 -5.397,0.001c-2.778,-2.346 -7.096,-5.627 -9.963,-8.227Zm1.344,-1.481c2.851,2.586 7.146,5.847 9.91,8.18c0.845,0.714 1.97,0.714 2.816,-0c2.763,-2.335 7.059,-5.599 9.91,-8.187c0.296,-0.268 0.418,-0.727 0.418,-1.195c-0,-0.468 -0.122,-0.927 -0.418,-1.195c-2.851,-2.588 -7.145,-5.851 -9.909,-8.186c-0.846,-0.715 -1.971,-0.714 -2.817,0.001c-2.764,2.336 -7.059,5.602 -9.91,8.191c-0.296,0.268 -0.418,0.727 -0.418,1.196c0,0.468 0.122,0.927 0.418,1.195Z" style="fill:#666;"/><path d="M2.323,12.744c3.099,-2.77 7.53,-6.159 10.5,-8.655c0.732,0.955 1.883,1.57 3.177,1.57c1.294,0 2.446,-0.616 3.177,-1.57c2.972,2.495 7.405,5.883 10.505,8.652c-1.018,0.725 -1.682,1.915 -1.682,3.259c-0,1.344 0.664,2.533 1.681,3.259c-3.086,2.757 -7.495,6.129 -10.467,8.621c-0.729,-0.983 -1.898,-1.62 -3.214,-1.62c-1.317,-0 -2.486,0.638 -3.215,1.621c-2.973,-2.492 -7.384,-5.863 -10.471,-8.619c1.02,-0.725 1.686,-1.916 1.686,-3.262c-0,-1.342 -0.662,-2.53 -1.677,-3.256Z" style="fill:#bfbfbf;"/><path d="M2.323,12.744c3.099,-2.77 7.53,-6.159 10.5,-8.655c0.732,0.955 1.883,1.57 3.177,1.57c1.294,0 2.446,-0.616 3.177,-1.57c2.972,2.495 7.405,5.883 10.505,8.652c-1.018,0.725 -1.682,1.915 -1.682,3.259c0,1.344 0.664,2.533 1.681,3.259c-3.086,2.757 -7.495,6.129 -10.467,8.621c-0.729,-0.983 -1.898,-1.62 -3.214,-1.62c-1.317,-0 -2.486,0.638 -3.215,1.621c-2.973,-2.492 -7.384,-5.863 -10.471,-8.619c1.02,-0.725 1.686,-1.916 1.686,-3.262c-0,-1.342 -0.662,-2.53 -1.677,-3.256Zm2.833,0.187c0.536,0.898 0.844,1.948 0.844,3.069c-0,1.124 -0.31,2.177 -0.849,3.077c2.4,2.036 5.242,4.26 7.57,6.158c0.943,-0.617 2.069,-0.975 3.279,-0.975c1.209,-0 2.335,0.358 3.277,0.974c2.328,-1.898 5.17,-4.124 7.569,-6.161c-0.537,-0.899 -0.846,-1.95 -0.846,-3.073c0,-1.123 0.309,-2.174 0.847,-3.073c-2.419,-2.053 -5.286,-4.298 -7.624,-6.206c-0.931,0.594 -2.037,0.938 -3.223,0.938c-1.185,0 -2.291,-0.344 -3.221,-0.937c-2.338,1.909 -5.205,4.155 -7.623,6.209Z" style="fill:#808080;"/></svg>