<?xml version="1.0" encoding="UTF-8" standalone="no"?><!DOCTYPE svg PUBLIC "-//W3C//DTD SVG 1.1//EN" "http://www.w3.org/Graphics/SVG/1.1/DTD/svg11.dtd"><svg width="32px" height="32px" version="1.1" xmlns="http://www.w3.org/2000/svg" xmlns:xlink="http://www.w3.org/1999/xlink" xml:space="preserve" xmlns:serif="http://www.serif.com/" style="fill-rule:evenodd;clip-rule:evenodd;stroke-linejoin:round;stroke-miterlimit:2;"><rect id="roll-2" x="0" y="-0" width="32" height="32" style="fill:none;"/><clipPath id="_clip1"><path d="M32,-0l-0,32l-32,-0l0,-32l32,-0Zm-30.58,1.583l-0.763,2.417c5.419,1.885 13.854,4.468 18.281,8c-1.857,-3.593 -9.775,-7.729 -17.518,-10.417Zm29.949,29.144c-9.468,-2.826 -20.187,-7.604 -22.878,-11.508c0.983,3.813 9.049,9.621 19.119,12.247l3.759,-0.739Zm0.13,-4.637l0,-2.09c-7.097,-1.289 -14.927,-3.846 -18.438,-6.537c2.844,3.624 10.354,7.696 18.438,8.627Z"/></clipPath><g clip-path="url(#_clip1)"><path d="M2.109,12.274c-0.313,-2.718 0.628,-5.431 2.556,-7.372c1.928,-1.94 4.635,-2.899 7.355,-2.604c3.013,0.326 6.191,0.671 8.917,0.966c4.181,0.453 7.491,3.741 7.972,7.92c0.301,2.62 0.65,5.653 0.982,8.542c0.313,2.718 -0.628,5.431 -2.556,7.372c-1.928,1.94 -4.635,2.899 -7.355,2.604c-3.013,-0.326 -6.191,-0.671 -8.917,-0.966c-4.181,-0.453 -7.491,-3.741 -7.972,-7.92c-0.301,-2.62 -0.65,-5.653 -0.982,-8.542Z" style="fill:#999;"/><path d="M2.109,12.274c-0.313,-2.718 0.628,-5.431 2.556,-7.372c1.928,-1.94 4.635,-2.899 7.355,-2.604l8.917,0.966c4.181,0.453 7.491,3.741 7.972,7.92l0.982,8.542c0.313,2.718 -0.628,5.431 -2.556,7.372c-1.928,1.94 -4.635,2.899 -7.355,2.604l-8.917,-0.966c-4.181,-0.453 -7.491,-3.741 -7.972,-7.92l-0.982,-8.542Zm1.987,-0.229l0.982,8.543c0.374,3.25 2.948,5.807 6.2,6.16l8.918,0.966c2.115,0.229 4.22,-0.516 5.72,-2.026c1.5,-1.509 2.231,-3.619 1.988,-5.733l-0.982,-8.543c-0.374,-3.25 -2.948,-5.807 -6.2,-6.16l-8.918,-0.966c-2.115,-0.229 -4.22,0.516 -5.72,2.026c-1.5,1.509 -2.231,3.619 -1.988,5.733Z" style="fill:#808080;"/></g><path d="M8.167,2.4c9.482,3.059 14.138,6.455 15.833,10.058c-3.963,-4.508 -10.581,-7.688 -18.889,-10.023l3.056,-0.035Z" style="fill:#fff;"/><path d="M2.801,5.699c9.758,3.031 15.723,6.455 17.605,10.301c-3.651,-3.931 -9.677,-6.724 -17.673,-8.573l0.068,-1.728Z" style="fill:#fff;"/><path d="M28.997,28.6c-6.603,-1.823 -11.819,-4.252 -14.075,-7.977c2.694,2.859 7.803,4.949 14.481,6.54l-0.406,1.437Z" style="fill:#fff;"/></svg>